<?xml version="1.0" standalone="no"?>
<!DOCTYPE svg PUBLIC "-//W3C//DTD SVG 1.1//EN" "http://www.w3.org/Graphics/SVG/1.1/DTD/svg11.dtd" >
<svg xmlns="http://www.w3.org/2000/svg">
<metadata>
This is a custom SVG webfont generated by Font Squirrel.
Copyright   : Copyright c Fsm plus 2001 All rights reserved
Designer    : Fred Smeijers
</metadata>
<defs>
<font id="DendaNewBold" horiz-adv-x="1250" >
<font-face units-per-em="2048" ascent="1638" descent="-410" />
<missing-glyph horiz-adv-x="450" />
<glyph unicode=" "  horiz-adv-x="450" />
<glyph unicode="&#x09;" horiz-adv-x="450" />
<glyph unicode="&#xa0;" horiz-adv-x="450" />
<glyph unicode="!" horiz-adv-x="566" d="M110 136q0 72 44.5 118t127.5 46q85 0 128.5 -46t43.5 -118t-43.5 -118t-128.5 -46q-83 0 -127.5 46t-44.5 118zM118 848v546h330v-546l-32 -410h-264z" />
<glyph unicode="&#x22;" horiz-adv-x="1004" d="M164 998v396h268v-164l-94 -232h-174zM572 998v396h268v-164l-94 -232h-174z" />
<glyph unicode="#" horiz-adv-x="1328" d="M0 336v216h232l126 330h-124v218h206l112 294h260l-114 -294h238l112 294h258l-112 -294h134v-218h-216l-126 -330h108v-216h-190l-130 -336h-258l130 336h-238l-130 -336h-258l130 336h-150zM490 552h238l126 330h-238z" />
<glyph unicode="$" horiz-adv-x="1184" d="M82 1012q0 89 34.5 159.5t96 122t146.5 83t185 41.5v86h94v-82q53 -1 115.5 -8t121 -17t105 -21.5t68.5 -21.5l-78 -274q-16 11 -56 22.5t-88 22t-97.5 17t-84.5 6.5h-6v-294l136 -42q67 -22 126.5 -57t104.5 -84.5t71 -114.5t26 -146q0 -95 -29 -172t-87.5 -132.5 t-145 -89t-202.5 -42.5v-124h-94v122q-57 1 -121 8t-124 18.5t-110 26t-79 29.5l94 288q23 -19 63 -36t88 -30t98 -20.5t91 -9.5v324q0 1 -24.5 9.5t-54.5 18.5t-55 18l-24 8q-62 22 -117.5 54.5t-97 79t-65.5 109.5t-24 145zM422 1012q0 -27 11 -47.5t29 -35.5t39.5 -26 t42.5 -19v252q-54 -15 -88 -47t-34 -77zM638 254q59 14 91.5 50t32.5 92q0 47 -28 81.5t-96 60.5v-284z" />
<glyph unicode="%" horiz-adv-x="1468" d="M32 1062q0 81 25 146.5t70.5 111.5t109 71t139.5 25q77 0 141 -25t110 -71t71.5 -111.5t25.5 -146.5q0 -79 -25.5 -144.5t-71.5 -112t-110 -72t-141 -25.5q-76 0 -139.5 25.5t-109 72t-70.5 112t-25 144.5zM90 0l1034 1396h246l-1036 -1396h-244zM270 1062 q0 -83 27.5 -120.5t78.5 -37.5t79.5 37.5t28.5 120.5q0 86 -28.5 122t-79.5 36t-78.5 -36t-27.5 -122zM744 338q0 80 25 145t70.5 111t109.5 71t141 25t140.5 -25t109 -71t71 -111t25.5 -145t-25.5 -145t-71 -111t-109 -71t-140.5 -25t-141 25t-109.5 71t-70.5 111t-25 145z M984 338q0 -83 26.5 -120.5t79.5 -37.5q51 0 78.5 38.5t27.5 119.5q0 85 -28 123.5t-78 38.5q-53 0 -79.5 -38.5t-26.5 -123.5z" />
<glyph unicode="&#x26;" horiz-adv-x="1396" d="M50 396q0 68 20.5 123.5t55 100t80 78t96.5 56.5q-27 31 -49 62.5t-37 66t-23.5 73t-8.5 84.5q0 77 28.5 146.5t87 122t148 83t210.5 30.5q41 0 84 -5t81 -12.5t69 -17.5t48 -21l-60 -250q-11 8 -29 17.5t-43.5 18t-57.5 14.5t-72 6q-34 0 -63.5 -7.5t-52 -24t-35.5 -41 t-13 -59.5q0 -26 9.5 -50.5t27.5 -49.5t43.5 -51t57.5 -55l380 -342q2 14 3 27t1 27q0 31 -3.5 61t-9.5 57t-14.5 49t-18.5 35h-100l38 182h406v-182h-140q14 -41 22 -96.5t8 -117.5q0 -50 -8.5 -95.5t-23.5 -90.5l188 -168l-238 -208q-1 1 -14.5 13.5t-34.5 32t-41 37.5 t-34.5 31.5t-15.5 13.5q-83 -60 -184 -94t-216 -34q-127 0 -229.5 26t-174 78.5t-110 132t-38.5 187.5zM402 438q0 -56 18.5 -100.5t50 -75.5t74 -47.5t89.5 -16.5q62 0 115 12.5t97 33.5l-28 27l-72.5 67.5t-94.5 87.5t-95 87.5t-73 67.5l-29 27q-24 -33 -38 -76t-14 -94z " />
<glyph unicode="'" horiz-adv-x="596" d="M164 998v396h268v-164l-94 -232h-174z" />
<glyph unicode="(" horiz-adv-x="872" d="M156 576v78q0 143 24.5 270t87.5 236.5t171.5 199.5t276.5 158v-202q-94 -49 -151 -117t-88 -152t-41 -183t-10 -210v-78q0 -112 10 -210.5t41 -182.5t88 -152t151 -117v-202q-168 68 -276.5 158t-171.5 199.5t-87.5 237t-24.5 269.5z" />
<glyph unicode=")" horiz-adv-x="872" d="M156 -86q94 49 151 117t88 152t41 182.5t10 210.5v78q0 111 -10 210t-41 183t-88 152t-151 117v202q168 -68 276.5 -158t171.5 -199.5t87.5 -236.5t24.5 -270v-78q0 -142 -24.5 -269.5t-87.5 -237t-171.5 -199.5t-276.5 -158v202z" />
<glyph unicode="*" horiz-adv-x="976" d="M72 1022l74 226l254 -132l-32 276h240l-30 -276l254 130l74 -226l-276 -70l196 -198l-196 -140l-142 234l-144 -246l-194 140l196 212z" />
<glyph unicode="+" horiz-adv-x="1064" d="M112 512v252h296v324h252v-324h292v-252h-292v-326h-252v326h-296z" />
<glyph unicode="," horiz-adv-x="562" d="M78 -288l140 260q-17 5 -38.5 16t-40.5 30t-32 48t-13 70q0 72 44.5 118t127.5 46t127.5 -46t44.5 -118q0 -41 -11.5 -79t-28 -72t-35.5 -64.5t-35 -56.5l-94 -152h-156z" />
<glyph unicode="-" horiz-adv-x="610" d="M78 438v252h454v-252h-454z" />
<glyph unicode="." horiz-adv-x="532" d="M94 136q0 72 44.5 118t127.5 46t127.5 -46t44.5 -118t-44.5 -118t-127.5 -46t-127.5 46t-44.5 118z" />
<glyph unicode="/" horiz-adv-x="1006" d="M94 0l548 1422h264l-552 -1422h-260z" />
<glyph unicode="0" horiz-adv-x="1146" d="M58 724q0 165 38.5 294.5t107.5 219.5t163.5 137t206.5 47t206.5 -47t163.5 -137t107.5 -219.5t38.5 -294.5q0 -174 -34.5 -313t-100.5 -236.5t-162 -150t-219 -52.5t-219 52.5t-162 150t-100.5 236.5t-34.5 313zM418 724q0 -91 6.5 -179.5t24 -158t48 -112t77.5 -42.5 q31 0 55 19.5t42 54t29.5 81t18.5 101.5t10 115t3 121q0 92 -7 172t-25 139t-48.5 93t-77.5 34t-77.5 -34t-48 -93t-24 -139t-6.5 -172z" />
<glyph unicode="1" horiz-adv-x="1146" d="M120 1134l516 260h170v-1394h-358v984l-250 -96z" />
<glyph unicode="2" horiz-adv-x="1146" d="M96 1286q83 62 187.5 99t234.5 37q112 0 199.5 -27.5t147.5 -78.5t91.5 -124.5t31.5 -165.5q0 -88 -16 -158t-50 -134.5t-87.5 -129t-128.5 -140.5l-188 -190h532v-274h-938v206l204 218q56 60 114.5 125.5t106.5 133t78.5 134t30.5 127.5q0 113 -47.5 165.5t-142.5 52.5 q-35 0 -68 -5.5t-65 -17t-65 -29t-68 -42.5z" />
<glyph unicode="3" horiz-adv-x="1146" d="M90 44l62 256q71 -32 154.5 -50t189.5 -18q53 0 96 8.5t74.5 29.5t48.5 55t17 85q0 31 -7.5 58t-30 47.5t-62 32.5t-104.5 12h-282l64 246h150q86 75 138 156.5t70 159.5h-500v272h844v-150q-10 -58 -36.5 -119.5t-64 -121t-83.5 -113t-96 -94.5q79 -12 139.5 -40 t102 -75t63 -114t21.5 -157q0 -103 -37 -184t-109 -137.5t-176.5 -86.5t-239.5 -30q-58 0 -116 5t-110.5 14.5t-98.5 23t-81 29.5z" />
<glyph unicode="4" horiz-adv-x="1146" d="M52 260v218q27 34 58 90.5t62 129t59.5 157t50.5 175t35 183.5t13 181h298q0 -88 -15.5 -181t-40.5 -182.5t-56 -172t-62.5 -152t-59.5 -121t-48 -79.5h314v232l280 110v-342h156v-246h-156v-260h-280v260h-608z" />
<glyph unicode="5" horiz-adv-x="1146" d="M98 44l62 256q29 -16 68.5 -28.5t82.5 -21.5t85.5 -13.5t77.5 -4.5q47 0 94.5 9t85 32.5t61 63.5t23.5 101q0 62 -24 97.5t-63.5 53.5t-89.5 22.5t-103 4.5h-266v778h796l-46 -272h-468v-260h108q91 0 175.5 -20t149.5 -67.5t104 -126t39 -196.5t-41.5 -207.5 t-116.5 -150t-178 -91.5t-226 -31q-52 0 -109 5t-109.5 14.5t-97.5 23t-74 29.5z" />
<glyph unicode="6" horiz-adv-x="1146" d="M74 628q0 185 55.5 328t155 240.5t237.5 147.5t302 50h110v-252h-110q-88 0 -167.5 -28t-139.5 -89.5t-95.5 -159t-35.5 -237.5q0 -117 21 -193.5t53.5 -121.5t71.5 -63t74 -18q81 0 126.5 58.5t45.5 161.5q0 102 -45.5 146t-126.5 44q-35 0 -60.5 -8.5t-49.5 -17.5 l46 232q13 5 30 10t36 9t38.5 6.5t37.5 2.5q88 0 160 -28t123 -82t79 -133t28 -181q0 -103 -34 -190.5t-97 -152t-152.5 -101t-200.5 -36.5q-117 0 -212 41t-162.5 123.5t-104.5 205.5t-37 286z" />
<glyph unicode="7" horiz-adv-x="1146" d="M90 1122v272h966v-150q-106 -159 -180 -306t-123.5 -295.5t-77.5 -306t-41 -336.5h-344q13 159 52 310t96 292t127.5 271.5t146.5 248.5h-622z" />
<glyph unicode="8" horiz-adv-x="1146" d="M74 356q0 62 22 115.5t58.5 97t85 76.5t100.5 53q-46 20 -88.5 49.5t-75 71.5t-51.5 99.5t-19 133.5q0 88 36 156.5t100.5 116t153 72.5t194.5 25t195 -23t153.5 -68t101 -111t36.5 -152q0 -72 -19.5 -127t-54 -96t-80 -70.5t-98.5 -50.5q53 -19 98.5 -48.5t80 -73 t54 -104t19.5 -142.5q0 -87 -41 -158t-111.5 -121t-164 -77.5t-199.5 -27.5q-100 0 -188.5 23.5t-154.5 71t-104.5 120t-38.5 169.5zM372 370q0 -41 16 -72t42.5 -51.5t60.5 -30.5t69 -10t68.5 8t59.5 27.5t42 51t16 77.5q0 31 -8.5 57t-23.5 47t-34.5 36t-41.5 24l-126 54 q-71 -41 -105.5 -94t-34.5 -124zM418 1040q0 -62 25 -97t69 -55l156 -68q29 20 50 41.5t34.5 47.5t19.5 58t6 73q0 31 -9.5 58t-32 47.5t-58 32.5t-88.5 12q-47 0 -80 -12t-53.5 -32.5t-29.5 -47.5t-9 -58z" />
<glyph unicode="9" horiz-adv-x="1146" d="M74 958q0 102 34 187.5t97 147t153 95.5t202 34q117 0 212.5 -39t163 -118.5t104 -200t36.5 -284.5q0 -184 -51 -329t-145 -245.5t-227 -153t-297 -52.5h-138v254h138q88 0 162.5 30t128.5 94t84.5 163.5t30.5 238.5q0 118 -21 192.5t-53 116.5t-70.5 57.5t-73.5 15.5 q-83 0 -127.5 -50.5t-44.5 -153.5t44.5 -154.5t127.5 -51.5q35 0 60.5 8.5t49.5 19.5l-48 -234q-12 -4 -29 -9t-36 -8.5t-38.5 -6t-36.5 -2.5q-88 0 -160 30t-123.5 86.5t-80 137.5t-28.5 184z" />
<glyph unicode=":" horiz-adv-x="532" d="M94 136q0 72 44.5 118t127.5 46t127.5 -46t44.5 -118t-44.5 -118t-127.5 -46t-127.5 46t-44.5 118zM94 780q0 72 44.5 118t127.5 46t127.5 -46t44.5 -118t-44.5 -118t-127.5 -46t-127.5 46t-44.5 118z" />
<glyph unicode=";" horiz-adv-x="562" d="M78 -288l140 260q-17 5 -38.5 16t-40.5 30t-32 48t-13 70q0 72 44.5 118t127.5 46t127.5 -46t44.5 -118q0 -41 -11.5 -79t-28 -72t-35.5 -64.5t-35 -56.5l-94 -152h-156zM94 780q0 72 44.5 118t127.5 46t127.5 -46t44.5 -118t-44.5 -118t-127.5 -46t-127.5 46t-44.5 118z " />
<glyph unicode="&#x37e;" horiz-adv-x="562" d="M78 -288l140 260q-17 5 -38.5 16t-40.5 30t-32 48t-13 70q0 72 44.5 118t127.5 46t127.5 -46t44.5 -118q0 -41 -11.5 -79t-28 -72t-35.5 -64.5t-35 -56.5l-94 -152h-156zM94 780q0 72 44.5 118t127.5 46t127.5 -46t44.5 -118t-44.5 -118t-127.5 -46t-127.5 46t-44.5 118z " />
<glyph unicode="&#x3c;" horiz-adv-x="1060" d="M116 526v174l860 360v-270l-510 -180l510 -228v-272z" />
<glyph unicode="=" horiz-adv-x="1064" d="M112 300v250h840v-250h-840zM112 694v252h840v-252h-840z" />
<glyph unicode="&#x3e;" horiz-adv-x="1060" d="M84 110v272l510 228l-510 180v270l860 -360v-174z" />
<glyph unicode="?" horiz-adv-x="1046" d="M130 1096v250q39 17 79 30.5t84 24t93.5 16t107.5 5.5q88 0 168 -18.5t141.5 -58t98 -101.5t36.5 -150q0 -59 -10 -110.5t-34 -96.5t-62.5 -83.5t-95.5 -73.5l-118 -70q-21 -13 -39.5 -23t-32.5 -22.5t-22 -32t-8 -52.5v-76l-232 -32v96q0 68 10 116t29 84t46.5 62 t62.5 48l112 70q30 18 47 38t25 42t10 46.5t2 51.5q0 34 -13.5 58t-36 39.5t-52.5 23t-64 7.5q-44 0 -89 -10t-88 -26t-82.5 -35t-72.5 -37zM242 136q0 72 44.5 118t127.5 46t127.5 -46t44.5 -118t-44.5 -118t-127.5 -46t-127.5 46t-44.5 118z" />
<glyph unicode="@" horiz-adv-x="1736" d="M66 630q0 141 34.5 254t94.5 201t141 151.5t173 105t192 61t197 19.5q107 0 206 -19.5t185 -59.5t156.5 -100t121 -141t78 -182t27.5 -224t-33 -218.5t-90 -161.5t-135 -100t-168 -34q-103 0 -169.5 41t-98.5 109q-13 -20 -32.5 -39t-45 -33.5t-57 -23t-69.5 -8.5 q-56 0 -104.5 18t-84.5 54.5t-56.5 93t-20.5 132.5q0 110 35 191.5t92 135.5t130 80.5t149 26.5h270v-520q0 -57 16 -86.5t64 -29.5q81 0 117.5 88t36.5 272q0 137 -41 242.5t-111.5 177t-165.5 108t-202 36.5q-117 0 -219.5 -42.5t-178.5 -122.5t-120 -194.5t-44 -258.5 q0 -162 45 -286t123 -208t183.5 -127t226.5 -43q95 0 176.5 20t153.5 62v-198q-72 -32 -155 -44t-175 -12q-101 0 -203.5 20.5t-197 63t-176 109.5t-142 159.5t-95 213t-34.5 270.5zM746 556q0 -83 21.5 -121.5t68.5 -38.5q32 0 63 10.5t63 39.5v340h-48q-27 0 -56.5 -11 t-54.5 -38t-41 -71t-16 -110z" />
<glyph unicode="A" horiz-adv-x="1344" d="M0 0l516 1394h328l500 -1394h-376l-58 192h-516l-66 -192h-328zM486 464h338l-162 516z" />
<glyph unicode="B" horiz-adv-x="1386" d="M164 0v1394h594q117 0 210 -23t157.5 -70.5t98.5 -119t34 -169.5q0 -51 -14 -96t-39 -82.5t-59.5 -65t-75.5 -44.5q41 -10 83 -33.5t75.5 -64.5t54.5 -101t21 -143q0 -86 -33 -156.5t-89 -120.5t-129.5 -77.5t-154.5 -27.5h-734zM524 274h234q83 0 127.5 39t44.5 111 q0 41 -11 69.5t-31.5 46.5t-49.5 26t-64 8h-142l64 232h62q41 0 68 14t43 37t22.5 52.5t6.5 60.5t-9.5 58.5t-33 48.5t-62 33t-97.5 12h-172v-848z" />
<glyph unicode="C" horiz-adv-x="1206" d="M82 724q0 154 53.5 282t151.5 220.5t236.5 144t308.5 51.5q106 0 188.5 -19t141.5 -49l-78 -274q-35 32 -102 50t-150 18q-94 0 -164 -31.5t-116.5 -88t-70 -134.5t-23.5 -170q0 -102 23 -187t67 -146.5t108 -96t146 -34.5q53 0 94.5 5t76.5 15.5t65.5 26t59.5 35.5 l64 -288q-23 -16 -62.5 -30.5t-88 -26t-102.5 -18.5t-107 -7q-129 0 -232.5 28.5t-183.5 79t-137.5 120.5t-94.5 153.5t-54.5 178t-17.5 192.5z" />
<glyph unicode="D" horiz-adv-x="1480" d="M164 0v1394h516q176 0 310 -47t224.5 -134t137 -211t46.5 -278q0 -163 -46 -297t-134 -228.5t-216 -146.5t-292 -52h-546zM524 274h140q88 0 155 32t112.5 91t69 142t23.5 185q0 98 -25.5 172.5t-71 124.5t-108.5 75.5t-139 25.5h-156v-848z" />
<glyph unicode="E" horiz-adv-x="1158" d="M164 0v1394h890l-62 -272h-468v-274h450v-274h-450v-300h514v-274h-874z" />
<glyph unicode="F" horiz-adv-x="1126" d="M164 0v1394h860l-64 -272h-436v-274h422v-274h-422v-574h-360z" />
<glyph unicode="G" horiz-adv-x="1404" d="M82 724q0 154 56 282t157.5 220.5t242.5 144t310 51.5q53 0 107.5 -5.5t106 -16t97.5 -25.5t81 -35l-78 -272q-17 16 -53 30.5t-80 25.5t-92 17.5t-89 6.5q-88 0 -160 -31.5t-123 -88t-79 -134.5t-28 -170q0 -102 23 -187t67 -146.5t108 -96t146 -34.5q29 0 50 1.5 t38.5 4.5t33 8t34.5 12v412h344v-588q-35 -20 -84.5 -44t-112.5 -45t-139 -35t-164 -14q-129 0 -232.5 28.5t-183.5 79t-137.5 120.5t-94.5 153.5t-54.5 178t-17.5 192.5z" />
<glyph unicode="H" horiz-adv-x="1566" d="M164 0v1394h380v-524h480v524h378v-1394h-378v538h-480v-538h-380z" />
<glyph unicode="I" horiz-adv-x="688" d="M164 0v1394h360v-1394h-360z" />
<glyph unicode="J" horiz-adv-x="782" d="M102 0v260h34q23 0 45.5 10t40.5 30.5t29 51.5t11 72v970h356v-998q0 -92 -25.5 -165.5t-75 -124.5t-121.5 -78.5t-166 -27.5h-128z" />
<glyph unicode="K" horiz-adv-x="1424" d="M164 0v1394h360v-624l468 640l376 -30l-486 -628l500 -738l-408 -42l-450 702v-674h-360z" />
<glyph unicode="L" horiz-adv-x="1062" d="M164 0v1394h360v-1120h436v-274h-796z" />
<glyph unicode="M" horiz-adv-x="1734" d="M164 0v1394h312l422 -518l376 518h296v-1394h-360v864l-312 -440h-110l-296 390v-814h-328z" />
<glyph unicode="N" horiz-adv-x="1546" d="M164 0v1394h282l608 -786v786h328v-1394h-264l-626 792v-792h-328z" />
<glyph unicode="O" horiz-adv-x="1478" d="M82 710q0 159 45.5 290t131 225t207.5 145.5t274 51.5t273.5 -51.5t206.5 -145.5t130.5 -225t45.5 -290q0 -174 -45.5 -311t-130.5 -232t-206.5 -145t-273.5 -50t-274 50t-207.5 145t-131 232t-45.5 311zM458 710q0 -107 20 -191t56.5 -141.5t89 -87.5t116.5 -30 q65 0 116.5 30t88 87.5t56 141.5t19.5 191q0 109 -19.5 188.5t-56 132t-88 78t-116.5 25.5q-64 0 -116.5 -25.5t-89 -78t-56.5 -132t-20 -188.5z" />
<glyph unicode="P" horiz-adv-x="1298" d="M164 0v1394h532q128 0 232 -32.5t177.5 -92.5t113 -146t39.5 -193q0 -118 -38.5 -211.5t-106 -159t-159 -100.5t-196.5 -35h-140l62 260h30q97 0 142.5 59.5t45.5 172.5q0 56 -19.5 95t-53.5 63.5t-79.5 36t-97.5 11.5h-124v-1122h-360z" />
<glyph unicode="Q" horiz-adv-x="1478" d="M82 710q0 159 45.5 290t131 225t207.5 145.5t274 51.5t273.5 -51.5t206.5 -145.5t130.5 -225t45.5 -290q0 -229 -77.5 -393.5t-220.5 -252.5l204 -188l-218 -176l-238 278q-51 -6 -106 -6q-152 0 -274 50t-207.5 145t-131 232t-45.5 311zM458 710q0 -107 20 -191 t56.5 -141.5t89 -87.5t116.5 -30q65 0 116.5 30t88 87.5t56 141.5t19.5 191q0 109 -19.5 188.5t-56 132t-88 78t-116.5 25.5q-64 0 -116.5 -25.5t-89 -78t-56.5 -132t-20 -188.5z" />
<glyph unicode="R" horiz-adv-x="1416" d="M164 0v1394h594q117 0 214.5 -27.5t167.5 -81t109 -132.5t39 -183q0 -71 -19.5 -134t-56 -113t-88 -85t-116.5 -50q23 -5 42.5 -18t35 -29t27.5 -32.5t19 -30.5l242 -464l-354 -42l-218 438q-17 35 -44 51.5t-62 16.5h-78l62 246h78q29 0 59.5 14.5t55.5 41.5t41 65 t16 85q0 92 -58 142t-176 50h-172v-1122h-360z" />
<glyph unicode="S" horiz-adv-x="1134" d="M82 54l94 288q23 -20 59.5 -37.5t79.5 -30.5t88.5 -20.5t86.5 -7.5q95 0 148.5 39t53.5 111q0 25 -5 46t-18.5 39t-38 34t-62.5 31l-170 70q-61 25 -113 59t-90 81.5t-59.5 110.5t-21.5 145q0 98 42 174t115.5 128.5t173.5 80t217 27.5q53 0 106.5 -7t101.5 -17.5 t87.5 -22t62.5 -21.5l-78 -274q-16 11 -46.5 22.5t-67.5 22t-77 17t-75 6.5q-95 0 -147.5 -37t-52.5 -99q0 -31 8.5 -53t23 -37.5t33.5 -26.5t41 -19l188 -70q66 -24 118.5 -58.5t88.5 -82.5t55.5 -111t19.5 -144q0 -103 -37 -184t-109 -137.5t-176.5 -86.5t-239.5 -30 q-58 0 -118.5 7t-115 18.5t-100 26t-74.5 30.5z" />
<glyph unicode="T" horiz-adv-x="1078" d="M-16 1122v272h1110l-64 -272h-328v-1122h-358v1122h-360z" />
<glyph unicode="U" horiz-adv-x="1546" d="M164 588v806h360v-806q0 -92 21.5 -155t56.5 -101.5t80 -55t92 -16.5t92 16.5t80 55t56.5 101.5t21.5 155v806h358v-806q0 -169 -46.5 -286.5t-128.5 -191t-193 -106t-240 -32.5q-135 0 -247 32.5t-193 106t-125.5 191t-44.5 286.5z" />
<glyph unicode="V" horiz-adv-x="1344" d="M0 1368l376 42l312 -976l344 976l312 -30l-516 -1380h-360z" />
<glyph unicode="W" horiz-adv-x="2110" d="M0 1368l376 42l272 -1002l306 986h250l318 -982l274 998l314 -30l-406 -1380h-408l-246 756l-238 -756h-406z" />
<glyph unicode="X" d="M0 0l444 680l-428 700l374 30l256 -420l260 420l328 -30l-432 -650l448 -730l-374 -28l-276 450l-272 -450z" />
<glyph unicode="Y" horiz-adv-x="1266" d="M0 1380l376 30l280 -562l282 562l328 -30l-454 -870v-510h-358v482z" />
<glyph unicode="Z" horiz-adv-x="1172" d="M62 0v124l568 998h-552v272h1032v-122l-572 -984h572v-288h-1048z" />
<glyph unicode="[" horiz-adv-x="860" d="M188 -300v1694h578v-234h-248v-1224h248v-236h-578z" />
<glyph unicode="\" horiz-adv-x="1006" d="M100 1422h264l548 -1422h-260z" />
<glyph unicode="]" horiz-adv-x="860" d="M94 -64h248v1224h-248v234h578v-1694h-578v236z" />
<glyph unicode="^" d="M294 1192v38l330 276l330 -276v-38h-142l-188 104l-186 -104h-144z" />
<glyph unicode="_" horiz-adv-x="1000" d="M0 -96h1000v-254h-1000v254z" />
<glyph unicode="`" d="M358 1450v40h300l140 -258v-40h-156z" />
<glyph unicode="a" horiz-adv-x="1188" d="M78 300q0 87 37 148.5t97 102t135.5 62.5t152.5 29l218 20v8q0 92 -45.5 135t-140.5 43q-47 0 -93.5 -10t-88.5 -25.5t-79.5 -35t-66.5 -39.5l-78 220q35 20 86 41.5t111 39.5t125.5 29.5t129.5 11.5q106 0 192 -19t147.5 -62.5t95 -114t33.5 -174.5v-504l32 -206h-312 l-28 104q-23 -22 -52 -43t-65 -37.5t-81.5 -27t-101.5 -10.5q-76 0 -142 20t-114.5 59.5t-76 98.5t-27.5 136zM406 328q0 -62 42 -92t114 -30q44 0 84 14.5t72 37.5v238l-156 -18q-31 -4 -59.5 -14.5t-50 -28.5t-34 -44.5t-12.5 -62.5z" />
<glyph unicode="b" horiz-adv-x="1282" d="M140 -28v1478l328 40v-532q48 51 125 86.5t173 35.5q101 0 184 -29t142.5 -89t92.5 -153t33 -221q0 -139 -35 -250.5t-106.5 -189.5t-180 -120t-254.5 -42q-58 0 -98 9t-76 19zM468 218q24 -10 42.5 -15.5t35 -8t31.5 -2.5h33q65 0 114.5 24.5t83 69.5t51 108t17.5 140 q0 92 -19 150.5t-51 91.5t-74.5 45.5t-89.5 12.5q-36 0 -63 -7t-47.5 -17.5t-35.5 -22t-28 -21.5v-548z" />
<glyph unicode="c" horiz-adv-x="938" d="M62 546q0 140 46 240.5t124 166t180 96.5t214 31q47 0 90.5 -5t79.5 -12.5t64.5 -17t45.5 -19.5l-62 -220q-18 17 -41 27.5t-48.5 17t-50.5 9t-48 2.5q-47 0 -92 -18.5t-80 -57t-56.5 -98t-21.5 -142.5q0 -97 21.5 -160t56.5 -100.5t80 -52.5t92 -15q23 0 50.5 5t54 12.5 t49 18t34.5 20.5l78 -206q-23 -16 -57 -30.5t-75 -26t-87 -18.5t-93 -7q-118 0 -218 32t-173.5 100t-115 174t-41.5 254z" />
<glyph unicode="d" horiz-adv-x="1282" d="M62 534q0 133 44.5 235t121 171t179 104.5t219.5 35.5q59 0 105 -9.5t81 -30.5v410l328 40v-1490l-328 -28v138q-23 -25 -52 -47.5t-64 -39.5t-76 -27t-88 -10q-100 0 -186 31.5t-149 98.5t-99 170.5t-36 247.5zM406 560q0 -97 19 -160.5t51.5 -101t75.5 -52t90 -14.5 q35 0 61.5 6.5t46.5 17t35 22.5t27 22v534q-24 21 -67.5 31.5t-88.5 10.5q-52 0 -98 -22.5t-79.5 -63.5t-53 -99.5t-19.5 -130.5z" />
<glyph unicode="e" horiz-adv-x="1138" d="M62 546q0 134 41 234.5t112.5 167t169 99.5t209.5 33q111 0 198 -28.5t147 -78.5t91.5 -117.5t31.5 -145.5q0 -30 -3.5 -97t-26.5 -161h-634q10 -66 33.5 -111t58.5 -72t81 -39t101 -12q35 0 72.5 5t72.5 14t66.5 22t54.5 29l78 -206q-41 -25 -83.5 -43.5t-91 -30 t-105 -17t-126.5 -5.5q-123 0 -224 32t-173 100t-111.5 174t-39.5 254zM396 656h370v28q0 81 -39.5 129.5t-132.5 48.5q-34 0 -66 -11.5t-58.5 -36.5t-45.5 -64t-28 -94z" />
<glyph unicode="f" horiz-adv-x="594" d="M-32 820l48 220h94v40q0 98 31 176t89.5 133.5t142 85t189.5 29.5q23 0 49 -2.5t51 -6.5t48 -9t40 -10l-46 -218q-35 21 -68.5 24.5t-57.5 3.5q-71 0 -105.5 -52.5t-34.5 -153.5v-40h172v-220h-172v-820h-328v820h-142z" />
<glyph unicode="g" horiz-adv-x="1282" d="M62 534q0 133 44.5 235t121 171t179 104.5t219.5 35.5q68 0 121 -17t79 -35l314 52v-1024q0 -129 -39.5 -220t-113 -149t-178 -84.5t-235.5 -26.5q-48 0 -99 3t-101 9.5t-96.5 17t-85.5 24.5l62 246q27 -15 64 -27.5t79.5 -21.5t88 -14t88.5 -5q66 0 111.5 15.5t73.5 46 t40.5 76.5t12.5 108v56q-23 -25 -52 -47.5t-64 -39.5t-76 -27t-88 -10q-100 0 -186 31.5t-149 98.5t-99 170.5t-36 247.5zM406 560q0 -97 19 -160.5t51.5 -101t75.5 -52t90 -14.5q35 0 61.5 6.5t46.5 17t35 22.5t27 22v534q-24 21 -67.5 31.5t-88.5 10.5q-52 0 -98 -22.5 t-79.5 -63.5t-53 -99.5t-19.5 -130.5z" />
<glyph unicode="h" horiz-adv-x="1310" d="M140 0v1381l328 42v-473q75 71 154.5 100.5t165.5 29.5q83 0 153 -21.5t121.5 -67.5t80.5 -118.5t29 -174.5v-698h-328v628q0 57 -12.5 96.5t-34.5 63.5t-52 35t-65 11q-62 0 -113 -24.5t-99 -77.5v-732h-328z" />
<glyph unicode="i" horiz-adv-x="608" d="M140 0v1040l328 40v-1080h-328zM140 1354q0 72 44.5 111t127.5 39t127.5 -39t44.5 -111t-44.5 -111t-127.5 -39t-127.5 39t-44.5 111z" />
<glyph unicode="j" horiz-adv-x="610" d="M-126 -396l48 218q24 -11 49.5 -19.5t60.5 -8.5t56.5 12t33 33.5t15 51.5t3.5 65v1084l328 40v-1124q0 -95 -33 -166.5t-90 -119.5t-134 -72t-165 -24q-59 0 -103.5 9t-68.5 21zM140 1354q0 72 44.5 111t127.5 39t127.5 -39t44.5 -111t-44.5 -111t-127.5 -39t-127.5 39 t-44.5 111z" />
<glyph unicode="k" horiz-adv-x="1172" d="M94 0v1380l328 42v-738h46l344 396l344 -28l-406 -450l422 -588l-376 -28l-328 478h-46v-464h-328z" />
<glyph unicode="l" horiz-adv-x="608" d="M140 0v1450l328 40v-1490h-328z" />
<glyph unicode="m" horiz-adv-x="2016" d="M140 0v1040l328 40v-130q72 71 150 100.5t164 29.5q57 0 109 -10.5t97 -32t80.5 -55t59.5 -80.5q39 49 81 83t86.5 55t92 30.5t96.5 9.5q83 0 154.5 -21.5t124 -67.5t83 -118.5t30.5 -174.5v-698h-330v628q0 57 -13.5 96.5t-37 63.5t-54 35t-65.5 11q-62 0 -111 -24.5 t-93 -77.5v-34v-698h-328v628q0 57 -13.5 96.5t-37 63.5t-55 35t-66.5 11q-60 0 -109.5 -23.5t-94.5 -74.5v-736h-328z" />
<glyph unicode="n" horiz-adv-x="1310" d="M140 0v1040l328 40v-130q75 71 150.5 100.5t161.5 29.5q83 0 154.5 -21.5t124 -67.5t83 -118.5t30.5 -174.5v-698h-328v628q0 57 -12.5 96.5t-34.5 63.5t-52 35t-65 11q-62 0 -113 -24.5t-99 -77.5v-732h-328z" />
<glyph unicode="o" horiz-adv-x="1216" d="M62 534q0 128 35 229.5t104 172t171.5 107.5t237.5 37q134 0 236 -37t171 -107.5t104 -172t35 -229.5q0 -123 -35 -224t-104 -173t-171 -111.5t-236 -39.5q-135 0 -237.5 39.5t-171.5 111.5t-104 173t-35 224zM406 534q0 -72 10 -132t33.5 -103.5t63 -68t97.5 -24.5 q59 0 97.5 24.5t62 68t33 103.5t9.5 132q0 66 -9.5 125.5t-33 104.5t-62 71.5t-97.5 26.5q-58 0 -97.5 -26.5t-63 -71.5t-33.5 -104.5t-10 -125.5z" />
<glyph unicode="p" horiz-adv-x="1282" d="M140 -410v1450l328 40v-122q48 51 125 86.5t173 35.5q101 0 184 -29t142.5 -89t92.5 -153t33 -221q0 -139 -35 -250.5t-106.5 -189.5t-180 -120t-254.5 -42q-58 0 -98 9t-76 19v-424h-328zM468 218q24 -10 42.5 -15.5t35 -8t31.5 -2.5h33q65 0 114.5 24.5t83 69.5t51 108 t17.5 140q0 92 -19 150.5t-51 91.5t-74.5 45.5t-89.5 12.5q-36 0 -63 -7t-47.5 -17.5t-35.5 -22t-28 -21.5v-548z" />
<glyph unicode="q" horiz-adv-x="1282" d="M62 534q0 133 44.5 235t121 171t179 104.5t219.5 35.5q59 0 105 -9.5t81 -30.5l328 40v-1490h-328v520q-23 -25 -52 -47.5t-64 -39.5t-76 -27t-88 -10q-100 0 -186 31.5t-149 98.5t-99 170.5t-36 247.5zM406 560q0 -97 19 -160.5t51.5 -101t75.5 -52t90 -14.5 q35 0 61.5 6.5t46.5 17t35 22.5t27 22v534q-24 21 -67.5 31.5t-88.5 10.5q-52 0 -98 -22.5t-79.5 -63.5t-53 -99.5t-19.5 -130.5z" />
<glyph unicode="r" horiz-adv-x="766" d="M140 0v1040l328 40v-150l78 68q19 15 37 29.5t37.5 26.5t40 19t43.5 7q35 0 58 -8t34 -20l-46 -300q-33 17 -66.5 22.5t-57.5 5.5q-38 0 -80 -14.5t-78 -55.5v-710h-328z" />
<glyph unicode="s" horiz-adv-x="966" d="M46 44l80 244q17 -10 50 -22.5t74 -23t86 -17.5t86 -7q93 0 132.5 29.5t39.5 80.5q0 20 -9 35t-24 27t-35 20.5t-42 13.5l-172 40q-42 11 -86.5 30.5t-80.5 54t-59.5 87.5t-23.5 130q0 72 31.5 130t91.5 99t147.5 63t199.5 22q53 0 107 -5t102 -12.5t87.5 -17t61.5 -19.5 l-78 -220q-12 11 -46 21.5t-75 18t-81 12t-64 4.5q-69 0 -112.5 -20.5t-43.5 -61.5q0 -21 8 -35.5t20 -24t25.5 -15t24.5 -7.5l188 -42q47 -11 94.5 -31t85.5 -55.5t62 -90.5t24 -137q0 -175 -124.5 -265.5t-359.5 -90.5q-47 0 -105.5 5t-114.5 13t-102.5 18.5t-69.5 21.5z " />
<glyph unicode="t" horiz-adv-x="766" d="M16 820l46 220h94v204l328 54v-258h220v-220h-220v-478q0 -41 8.5 -65.5t23.5 -37.5t35 -17t43 -4q79 0 124 42l64 -192q-17 -16 -48 -30.5t-71 -26t-86 -18.5t-93 -7q-71 0 -131.5 18.5t-104 57t-68 97.5t-24.5 141v520h-140z" />
<glyph unicode="u" horiz-adv-x="1294" d="M126 370v682l328 28v-642q0 -56 12.5 -95.5t34.5 -64t52 -35.5t65 -11q62 0 112 24t98 80v716l328 28v-1052l-328 -42v134q-74 -72 -154 -103t-166 -31q-82 0 -152 21.5t-121 68t-80 119t-29 175.5z" />
<glyph unicode="v" horiz-adv-x="1078" d="M0 1040l344 40l218 -724l250 724l266 -28l-374 -1052h-141h-235z" />
<glyph unicode="w" horiz-adv-x="1718" d="M0 1040l344 40l188 -724l234 696h172h94l218 -696l204 724l264 -28l-312 -1052h-360l-198 588l-192 -588h-360z" />
<glyph unicode="x" horiz-adv-x="1046" d="M16 14l342 508l-342 530l344 28l180 -286l164 286l312 -28l-330 -488l346 -550l-328 -28l-200 308l-192 -308z" />
<glyph unicode="y" horiz-adv-x="1078" d="M0 1040l344 40l218 -698l250 698l266 -28l-390 -1052q-28 -77 -67.5 -152.5t-92.5 -136t-121.5 -98t-156.5 -37.5q-70 0 -109 8.5t-63 19.5v218q24 -11 58.5 -19.5t81.5 -8.5q71 0 110 31t62 93l10 28z" />
<glyph unicode="z" horiz-adv-x="1000" d="M62 0v136l438 670h-422v234h844v-152l-438 -656h454v-232h-876z" />
<glyph unicode="{" horiz-adv-x="990" d="M62 492v196q83 5 142 22t97.5 45.5t56.5 67t18 85.5v228q0 83 14 148.5t52 111t104.5 70t171.5 24.5h240v-216q-64 0 -111.5 -5.5t-78 -23t-45.5 -50t-15 -85.5v-246q0 -57 -16 -101.5t-43.5 -77.5t-63.5 -56.5t-77 -38.5q41 -16 77 -31t63.5 -38t43.5 -60t16 -99v-342 q0 -56 17 -88t49.5 -47.5t79 -19t104.5 -3.5v-216h-240q-105 0 -171.5 24.5t-104.5 71t-52 112t-14 148.5v268q0 48 -18 87.5t-56.5 68t-97.5 45.5t-142 21z" />
<glyph unicode="|" horiz-adv-x="1002" d="M336 -410v2056h330v-2056h-330z" />
<glyph unicode="}" horiz-adv-x="990" d="M30 -138q59 0 105 3.5t78.5 19t49.5 47.5t17 88v342q0 62 16 99t43.5 60t64.5 38t78 31q-41 15 -78 38.5t-64.5 56.5t-43.5 77.5t-16 101.5v246q0 53 -15 85.5t-45.5 50t-77.5 23t-112 5.5v216h240q105 0 171.5 -24.5t104.5 -70t52 -111t14 -148.5v-228q0 -47 18 -85.5 t56.5 -67t98.5 -45.5t143 -22v-196q-83 -4 -143 -20.5t-98.5 -45t-56.5 -68t-18 -88.5v-268q0 -83 -14 -148.5t-52 -112t-104.5 -71t-171.5 -24.5h-240v216z" />
<glyph unicode="~" d="M336 1230v186l14 10q13 11 35 23t50 22.5t57 10.5q41 0 74 -17t64 -37t61.5 -37t64.5 -17q30 0 58.5 10.5t50.5 23.5t35 24l14 10v-182l-14 -10q-13 -11 -35 -24t-50.5 -23.5t-58.5 -10.5q-40 0 -73.5 17t-64 37t-61 37t-65.5 17q-29 0 -57 -11t-50 -24t-35 -24z" />
<glyph horiz-adv-x="1206" d="M-102 444l32 158h124q-6 63 -6 122q0 20 1 38t3 36h-110l34 160h106q35 106 100 191.5t156.5 146t207 93.5t250.5 33q107 0 189 -19t141 -49l-78 -274q-33 32 -100 50t-152 18q-121 0 -201.5 -50.5t-122.5 -139.5h372l-28 -160h-388q-2 -18 -3 -36t-1 -38q0 -32 2.5 -62 t5.5 -60h350l-32 -158h-268q42 -86 114 -135t172 -49q53 0 94.5 5t76.5 15.5t65 26t58 35.5l64 -288q-23 -16 -62.5 -30.5t-87.5 -26t-101.5 -18.5t-106.5 -7q-146 0 -259.5 36t-197.5 99t-139.5 149.5t-85.5 187.5h-188z" />
<glyph unicode="&#x20ac;" horiz-adv-x="1206" d="M-102 444l32 158h124q-6 63 -6 122q0 20 1 38t3 36h-110l34 160h106q35 106 100 191.5t156.5 146t207 93.5t250.5 33q107 0 189 -19t141 -49l-78 -274q-33 32 -100 50t-152 18q-121 0 -201.5 -50.5t-122.5 -139.5h372l-28 -160h-388q-2 -18 -3 -36t-1 -38q0 -32 2.5 -62 t5.5 -60h350l-32 -158h-268q42 -86 114 -135t172 -49q53 0 94.5 5t76.5 15.5t65 26t58 35.5l64 -288q-23 -16 -62.5 -30.5t-87.5 -26t-101.5 -18.5t-106.5 -7q-146 0 -259.5 36t-197.5 99t-139.5 149.5t-85.5 187.5h-188z" />
<glyph horiz-adv-x="1180" d="M70 0v124l568 998h-552v272h1032v-122l-572 -984h572v-288h-1048zM268 1736v42h124l12 -23q13 -23 37.5 -51t61 -51t83.5 -23t83 23t60.5 51t37.5 51l13 23h124v-42l-6 -20q-7 -20 -22 -50.5t-39 -65.5t-59.5 -65.5t-82.5 -50.5t-109 -20q-61 0 -108.5 20t-83 50.5 t-59.5 65.5t-39 65.5t-22 50.5z" />
<glyph unicode="&#x17d;" horiz-adv-x="1180" d="M70 0v124l568 998h-552v272h1032v-122l-572 -984h572v-288h-1048zM268 1736v42h124l12 -23q13 -23 37.5 -51t61 -51t83.5 -23t83 23t60.5 51t37.5 51l13 23h124v-42l-6 -20q-7 -20 -22 -50.5t-39 -65.5t-59.5 -65.5t-82.5 -50.5t-109 -20q-61 0 -108.5 20t-83 50.5 t-59.5 65.5t-39 65.5t-22 50.5z" />
<glyph horiz-adv-x="1000" d="M62 0v136l438 670h-422v234h844v-152l-438 -656h454v-232h-876zM188 1450v40h122q1 -1 8.5 -15t24 -36.5t39.5 -43.5t54 -36t68 -15t68.5 15t55 36t40 43.5t24 36.5t8.5 15h122v-40l-6 -20q-7 -20 -22 -50.5t-39 -65.5t-59.5 -65.5t-82.5 -50.5t-109 -20q-61 0 -108.5 20 t-82.5 50.5t-59 65.5t-38.5 65.5t-21.5 50.5z" />
<glyph unicode="&#x17e;" horiz-adv-x="1000" d="M62 0v136l438 670h-422v234h844v-152l-438 -656h454v-232h-876zM188 1450v40h122q1 -1 8.5 -15t24 -36.5t39.5 -43.5t54 -36t68 -15t68.5 15t55 36t40 43.5t24 36.5t8.5 15h122v-40l-6 -20q-7 -20 -22 -50.5t-39 -65.5t-59.5 -65.5t-82.5 -50.5t-109 -20q-61 0 -108.5 20 t-82.5 50.5t-59 65.5t-38.5 65.5t-21.5 50.5z" />
<glyph unicode="&#xa1;" horiz-adv-x="566" d="M110 1230q0 72 44.5 118t127.5 46q85 0 128.5 -46t43.5 -118t-43.5 -117t-128.5 -45q-83 0 -127.5 45t-44.5 117zM116 -28v546l34 410h264l32 -410v-546h-330z" />
<glyph unicode="&#xa2;" horiz-adv-x="1206" d="M82 724q0 143 46.5 264t132.5 212t207.5 147.5t271.5 70.5v86h94v-82q106 0 187.5 -19t140.5 -49l-78 -274q-35 32 -101 50t-149 18v-888q45 2 82 7.5t68.5 16t59 25t54.5 33.5l64 -288q-22 -15 -57.5 -29t-79.5 -25t-93 -18.5t-98 -9.5v-122h-94v124q-117 7 -211.5 39 t-168 84t-126 121t-86.5 150t-50 171.5t-16 184.5zM458 724q0 -91 19 -169.5t55 -138.5t88.5 -98.5t119.5 -51.5v874q-71 -14 -124 -51t-88 -91t-52.5 -124t-17.5 -150z" />
<glyph unicode="&#xa3;" horiz-adv-x="1140" d="M58 -26l46 206q56 20 86.5 52.5t44 74.5t15.5 91.5t2 101.5v106h-194l66 238h128v134q0 107 33.5 188.5t96 137t151.5 84t201 28.5q37 0 71 -5t66 -12.5t62.5 -15.5t60.5 -15v-298q-40 23 -73 38t-60.5 23.5t-50 11.5t-40.5 3q-32 0 -65 -7t-60 -29t-44 -62.5t-17 -107.5 v-96h286v-238h-286v-80q0 -49 -8.5 -89t-23.5 -72t-35 -57.5t-43 -45.5q41 0 84.5 -5t89.5 -11t95 -11t101 -5q33 0 64.5 4.5t59.5 12t50.5 16t37.5 15.5v-256q-11 -6 -32 -14.5t-48.5 -16.5t-61 -13.5t-70.5 -5.5q-70 0 -137.5 6t-132 13.5t-126 14t-120.5 6.5 q-49 0 -97.5 -6t-87 -13t-61.5 -13z" />
<glyph unicode="&#xa4;" horiz-adv-x="1206" d="M-102 444l32 158h124q-6 63 -6 122q0 20 1 38t3 36h-110l34 160h106q35 106 100 191.5t156.5 146t207 93.5t250.5 33q107 0 189 -19t141 -49l-78 -274q-33 32 -100 50t-152 18q-121 0 -201.5 -50.5t-122.5 -139.5h372l-28 -160h-388q-2 -18 -3 -36t-1 -38q0 -32 2.5 -62 t5.5 -60h350l-32 -158h-268q42 -86 114 -135t172 -49q53 0 94.5 5t76.5 15.5t65 26t58 35.5l64 -288q-23 -16 -62.5 -30.5t-87.5 -26t-101.5 -18.5t-106.5 -7q-146 0 -259.5 36t-197.5 99t-139.5 149.5t-85.5 187.5h-188z" />
<glyph unicode="&#xa5;" horiz-adv-x="1266" d="M0 1380l376 30l280 -562l282 562l328 -30l-18 -34q-17 -33 -45.5 -87.5t-65 -124.5t-74.5 -143t-75 -143t-65.5 -124.5t-46.5 -87.5l-18 -34h238v-130h-284v-172h284v-128h-284v-172h-358v172h-284v128h284v172h-284v130h224z" />
<glyph unicode="&#xa6;" horiz-adv-x="1002" d="M336 400h330v-810h-330v810zM336 852v794h330v-794h-330z" />
<glyph unicode="&#xa7;" horiz-adv-x="1078" d="M66 458q0 81 33 143.5t89 100.5l154 -58q-5 -12 -10 -22t-9 -20.5t-6.5 -23.5t-2.5 -32q0 -30 11 -50.5t28.5 -34.5t40 -23.5t44.5 -17.5l214 -78q23 -8 53 -19.5t62 -29t63.5 -43.5t56.5 -62.5t40 -85.5t15 -114q0 -83 -33 -152.5t-97.5 -119t-159 -77t-216.5 -27.5 q-53 0 -107 7t-102 17.5t-87 22.5t-62 21l78 274q17 -10 44 -21.5t60 -22t70 -17.5t72 -7q94 0 137 26t43 76q0 29 -9.5 47.5t-26 32t-39.5 22.5t-49 18l-116 42q-45 16 -93.5 38t-89 57t-67 86.5t-26.5 126.5zM126 1046q0 83 33.5 152.5t98 119t159 77t215.5 27.5 q53 0 110.5 -7t109.5 -17.5t94.5 -22t65.5 -21.5l-78 -274q-18 11 -48.5 22.5t-67 22t-76 17t-74.5 6.5q-95 0 -137.5 -26t-42.5 -76q0 -28 9 -47t25 -32.5t38 -23t48 -17.5l120 -40q45 -14 94 -36t89.5 -57.5t66.5 -88t26 -128.5q0 -78 -35 -140.5t-89 -103.5l-152 60 q5 11 10 20.5t9 20t6.5 23.5t2.5 32q0 31 -11.5 51.5t-29.5 35t-41 24t-46 17.5l-210 76q-22 8 -52.5 19.5t-63 29.5t-64 43.5t-56.5 62t-40.5 86t-15.5 113.5z" />
<glyph unicode="&#xa8;" d="M252 1324q0 57 36 93.5t102 36.5t101 -36.5t35 -93.5t-35 -94.5t-101 -37.5t-102 37.5t-36 94.5zM722 1324q0 57 36 93.5t102 36.5t102 -36.5t36 -93.5t-36 -94.5t-102 -37.5t-102 37.5t-36 94.5z" />
<glyph unicode="&#xa9;" horiz-adv-x="1402" d="M32 690q0 162 43 295t127.5 227.5t210 146t289.5 51.5t289 -52.5t209 -147t127 -227t43 -293.5t-43 -293.5t-127 -227t-209 -146t-289 -51.5t-289.5 51.5t-210 146t-127.5 227t-43 293.5zM270 690q0 -146 33 -249t91 -168t137 -95t171 -30t170.5 30t136 95t90.5 168 t33 249q0 147 -33 250t-90.5 168t-136 94.5t-170.5 29.5t-171 -29.5t-137 -94.5t-91 -168t-33 -250zM442 690q0 92 30.5 159t81 110.5t116.5 65t136 21.5q19 0 42 -2.5t45 -6.5t40.5 -9t28.5 -10l-32 -162q-12 10 -24 17t-26.5 11.5t-32.5 7t-41 2.5q-34 0 -61.5 -16 t-46 -43.5t-28.5 -64.5t-10 -80q0 -104 37 -161t109 -57q47 0 84.5 19t55.5 39v-168q-9 -8 -25 -15.5t-35.5 -13.5t-40 -9.5t-39.5 -3.5q-76 0 -142.5 18.5t-116 62t-77.5 114.5t-28 175z" />
<glyph unicode="&#xaa;" horiz-adv-x="1114" d="M78 800q0 69 30 117t78.5 79.5t110 49.5t126 27.5t125.5 13.5t108 7q-2 63 -40 92.5t-116 29.5q-83 0 -161.5 -27t-140.5 -65l-80 194q35 19 83.5 37t104 32.5t115.5 23.5t119 9q95 0 175 -15t137.5 -50t89.5 -92t32 -141v-390l30 -174h-304l-22 70q-22 -16 -48 -31 t-58.5 -27t-71.5 -19t-86 -7q-70 0 -131 16.5t-106.5 48.5t-72 80t-26.5 111zM398 824q0 -41 32 -61.5t94 -20.5q38 0 70.5 9.5t61.5 24.5v164l-130 -12q-56 -5 -92 -30.5t-36 -73.5z" />
<glyph unicode="&#xab;" horiz-adv-x="1262" d="M126 466v130l496 364v-238l-220 -192l220 -244v-240zM638 466v130l496 364v-238l-220 -192l220 -244v-240z" />
<glyph unicode="&#xac;" horiz-adv-x="1064" d="M112 512v252h840v-494h-238v242h-602z" />
<glyph unicode="&#xad;" horiz-adv-x="610" d="M78 438v252h454v-252h-454z" />
<glyph unicode="&#xae;" horiz-adv-x="1402" d="M32 690q0 162 43 295t127.5 227.5t210 146t289.5 51.5t289 -52.5t209 -147t127 -227t43 -293.5t-43 -293.5t-127 -227t-209 -146t-289 -51.5t-289.5 51.5t-210 146t-127.5 227t-43 293.5zM270 690q0 -146 33 -249t91 -168t137 -95t171 -30t170.5 30t136 95t90.5 168 t33 249q0 147 -33 250t-90.5 168t-136 94.5t-170.5 29.5t-171 -29.5t-137 -94.5t-91 -168t-33 -250zM422 354v684h344q47 0 89.5 -13.5t74.5 -40.5t51 -66t19 -90q0 -40 -11.5 -70.5t-29.5 -52.5t-41 -35t-46 -18q7 -3 14.5 -12.5t14 -21t12 -21.5t7.5 -15l108 -228h-208 l-74 170q-4 10 -9.5 21t-12.5 20.5t-16.5 16t-23.5 6.5h-16l16 102h30q44 0 68 33t24 95q0 51 -34.5 71.5t-87.5 20.5h-68v-556h-194z" />
<glyph unicode="&#xaf;" d="M382 1192v182h484v-182h-484z" />
<glyph unicode="&#x2c9;" d="M382 1192v182h484v-182h-484z" />
<glyph unicode="&#xb0;" horiz-adv-x="758" d="M32 1062q0 81 25 146.5t70.5 111.5t109 71t139.5 25q77 0 141 -25t110 -71t71.5 -111.5t25.5 -146.5q0 -79 -25.5 -144.5t-71.5 -112t-110 -72t-141 -25.5q-76 0 -139.5 25.5t-109 72t-70.5 112t-25 144.5zM270 1062q0 -83 27.5 -120.5t78.5 -37.5t79.5 37.5t28.5 120.5 q0 86 -28.5 122t-79.5 36t-78.5 -36t-27.5 -122z" />
<glyph unicode="&#xb1;" horiz-adv-x="1064" d="M112 0h840v-254h-840v254zM112 512v252h296v324h252v-324h292v-252h-292v-326h-252v326h-296z" />
<glyph unicode="&#xb2;" horiz-adv-x="984" d="M136 1302q78 45 156.5 68.5t169.5 23.5q86 0 156 -16.5t119.5 -48.5t76 -78.5t26.5 -106.5q0 -54 -13.5 -97.5t-40.5 -83t-69 -78.5t-99 -83l-98 -74h368v-200h-732v148l160 132q44 38 84 76t70.5 75t49 72.5t18.5 66.5q0 56 -29.5 81t-92.5 25q-25 0 -45.5 -3 t-41.5 -10.5t-45 -19.5t-56 -31z" />
<glyph unicode="&#xb3;" horiz-adv-x="984" d="M118 576l58 186q29 -12 58 -20.5t59.5 -14.5t64 -8.5t72.5 -2.5q81 0 120.5 20t39.5 64q0 13 -3 27.5t-16.5 27t-40.5 21t-74 8.5h-218l56 168h124q26 18 43.5 36t30.5 36t22.5 36t17.5 36h-350v198h662v-110q-7 -32 -24 -65.5t-41 -65t-54 -61t-63 -54.5 q102 -21 159 -77.5t57 -160.5q0 -67 -31.5 -118t-90 -85.5t-141 -52.5t-185.5 -18q-91 0 -167 13t-145 37z" />
<glyph unicode="&#xb4;" d="M406 1192v40l140 258h300v-40l-282 -258h-158z" />
<glyph unicode="&#xb5;" horiz-adv-x="1294" d="M126 -410v1462l328 28v-662q0 -56 12.5 -92t34.5 -57t52 -29t65 -8q31 0 59.5 4t54.5 15.5t50 32t46 52.5v716l328 28v-796q0 -55 7 -95t18.5 -70t26 -52t28.5 -39l-326 -42q-24 21 -40 53.5t-22 80.5q-44 -69 -108 -101.5t-150 -32.5q-18 0 -39 3.5t-40.5 10t-34.5 14 t-22 14.5v-438h-328z" />
<glyph unicode="&#x3bc;" horiz-adv-x="1294" d="M126 -410v1462l328 28v-662q0 -56 12.5 -92t34.5 -57t52 -29t65 -8q31 0 59.5 4t54.5 15.5t50 32t46 52.5v716l328 28v-796q0 -55 7 -95t18.5 -70t26 -52t28.5 -39l-326 -42q-24 21 -40 53.5t-22 80.5q-44 -69 -108 -101.5t-150 -32.5q-18 0 -39 3.5t-40.5 10t-34.5 14 t-22 14.5v-438h-328z" />
<glyph unicode="&#xb6;" horiz-adv-x="1576" d="M78 944q0 89 25 170.5t79 144t140.5 100t209.5 37.5h882v-1752h-350v1484h-172v-1484h-360v862q-117 0 -202.5 33.5t-141.5 92.5t-83 139t-27 173z" />
<glyph unicode="&#xb7;" horiz-adv-x="532" d="M94 550q0 74 44.5 119t127.5 45t127.5 -45t44.5 -119q0 -35 -11.5 -65t-33.5 -51.5t-54 -33.5t-73 -12t-73 12t-54 33.5t-33.5 51.5t-11.5 65z" />
<glyph unicode="&#x22c5;" horiz-adv-x="532" d="M94 550q0 74 44.5 119t127.5 45t127.5 -45t44.5 -119q0 -35 -11.5 -65t-33.5 -51.5t-54 -33.5t-73 -12t-73 12t-54 33.5t-33.5 51.5t-11.5 65z" />
<glyph unicode="&#xb8;" horiz-adv-x="1032" d="M334 -94l114 122h112l-76 -78l86 -36q38 -17 65 -33.5t44.5 -36t26 -43.5t8.5 -55q0 -26 -11 -50.5t-27 -45.5t-33.5 -36.5t-30.5 -23.5h-230q14 8 34.5 24t40 35t33.5 38.5t14 36.5q0 29 -17.5 44t-50.5 30l-102 42v66z" />
<glyph unicode="&#xb9;" horiz-adv-x="984" d="M104 1234l416 160h154v-850h-314v566l-182 -54z" />
<glyph unicode="&#xba;" horiz-adv-x="1132" d="M62 986q0 102 32.5 182.5t96.5 136.5t158.5 85.5t218.5 29.5q122 0 216 -29.5t158 -85.5t97 -136.5t33 -182.5q0 -100 -33 -181.5t-97 -139.5t-158 -89.5t-216 -31.5q-124 0 -218.5 31.5t-158.5 89.5t-96.5 139.5t-32.5 181.5zM396 986q0 -56 8.5 -101.5t28.5 -77 t53 -48.5t82 -17q48 0 80.5 17t52 48.5t27.5 77t8 101.5q0 50 -8 94t-27.5 76.5t-52 51t-80.5 18.5q-49 0 -82 -18.5t-53 -51t-28.5 -76.5t-8.5 -94z" />
<glyph unicode="&#xbb;" horiz-adv-x="1262" d="M126 46v240l222 244l-222 192v238l496 -364v-130zM638 46v240l222 244l-222 192v238l496 -364v-130z" />
<glyph unicode="&#xbc;" horiz-adv-x="2128" d="M104 1234l416 160h154v-850h-314v566l-182 -54zM526 0l912 1394h166l-914 -1394h-164zM1254 152v154q32 31 68.5 88.5t68 131t52.5 157.5t21 167h268q0 -76 -20 -152.5t-50 -145.5t-63.5 -125.5t-60.5 -92.5h176v128l254 78v-206h118v-182h-118v-152h-254v152h-460z" />
<glyph unicode="&#xbd;" horiz-adv-x="2128" d="M104 1234l416 160h154v-850h-314v566l-182 -54zM526 0l912 1394h166l-914 -1394h-164zM1282 776q78 45 157 67.5t171 22.5q86 0 155.5 -16.5t118.5 -48.5t75.5 -78.5t26.5 -106.5q0 -54 -13.5 -97.5t-40.5 -83t-68.5 -78.5t-97.5 -83l-98 -76h366v-198h-734v150l162 130 q45 36 85.5 74t71.5 75.5t49 73.5t18 67q0 56 -30.5 81t-93.5 25q-25 0 -45.5 -2.5t-42 -9.5t-46 -19t-56.5 -31z" />
<glyph unicode="&#xbe;" horiz-adv-x="2128" d="M118 576l58 186q29 -12 58 -20.5t59.5 -14.5t64 -8.5t72.5 -2.5q81 0 120.5 20t39.5 64q0 13 -3 27.5t-16.5 27t-40.5 21t-74 8.5h-218l56 168h124q26 18 43.5 36t30.5 36t22.5 36t17.5 36h-350v198h662v-110q-7 -32 -24 -65.5t-41 -65t-54 -61t-63 -54.5 q102 -21 159 -77.5t57 -160.5q0 -67 -31.5 -118t-90 -85.5t-141 -52.5t-185.5 -18q-91 0 -167 13t-145 37zM526 0l912 1394h166l-914 -1394h-164zM1254 152v154q32 31 68.5 88.5t68 131t52.5 157.5t21 167h268q0 -76 -20 -152.5t-50 -145.5t-63.5 -125.5t-60.5 -92.5h176 v128l254 78v-206h118v-182h-118v-152h-254v152h-460z" />
<glyph unicode="&#xbf;" horiz-adv-x="1046" d="M108 300q0 118 52 201.5t152 142.5l116 68q18 11 36 20.5t33 23t24 33.5t9 53v96l232 32v-116q0 -67 -8.5 -115t-26.5 -83.5t-46 -61.5t-67 -50l-112 -68q-25 -16 -41.5 -32.5t-26 -35.5t-13 -41t-3.5 -49q0 -34 13.5 -58.5t36 -40.5t52.5 -23.5t64 -7.5q44 0 89.5 10 t89 26t83 35t72.5 37v-248q-39 -17 -79.5 -31t-85 -24t-94 -15.5t-107.5 -5.5q-87 0 -167 18.5t-141.5 58t-98.5 101.5t-37 150zM460 1258q0 35 11.5 65t33.5 52t54 34.5t73 12.5q42 0 74 -12.5t54 -34.5t33 -52t11 -65q0 -72 -43.5 -118t-128.5 -46q-83 0 -127.5 46 t-44.5 118z" />
<glyph unicode="&#xc0;" horiz-adv-x="1344" d="M0 0l516 1394h328l500 -1394h-376l-58 192h-516l-66 -192h-328zM486 464h338l-162 516zM406 1736v40h300l140 -258v-40h-156z" />
<glyph unicode="&#xc1;" horiz-adv-x="1344" d="M0 0l516 1394h328l500 -1394h-376l-58 192h-516l-66 -192h-328zM486 464h338l-162 516zM514 1478v40l140 258h300v-40l-282 -258h-158z" />
<glyph unicode="&#xc2;" horiz-adv-x="1344" d="M0 0l516 1394h328l500 -1394h-376l-58 192h-516l-66 -192h-328zM486 464h338l-162 516zM342 1478v38l330 276l330 -276v-38h-142l-188 104l-186 -104h-144z" />
<glyph unicode="&#xc3;" horiz-adv-x="1344" d="M0 0l516 1394h328l500 -1394h-376l-58 192h-516l-66 -192h-328zM486 464h338l-162 516zM384 1516v186l14 10q13 11 35 23t50 22.5t57 10.5q41 0 74 -17t64 -37t61.5 -37t64.5 -17q30 0 58.5 10.5t50.5 23.5t35 24l14 10v-182l-14 -10q-13 -11 -35 -24t-50.5 -23.5 t-58.5 -10.5q-40 0 -73.5 17t-64 37t-61 37t-65.5 17q-29 0 -57 -11t-50 -24t-35 -24z" />
<glyph unicode="&#xc4;" horiz-adv-x="1344" d="M0 0l516 1394h328l500 -1394h-376l-58 192h-516l-66 -192h-328zM486 464h338l-162 516zM300 1610q0 57 36 93.5t102 36.5t101 -36.5t35 -93.5t-35 -94.5t-101 -37.5t-102 37.5t-36 94.5zM770 1610q0 57 36 93.5t102 36.5t102 -36.5t36 -93.5t-36 -94.5t-102 -37.5 t-102 37.5t-36 94.5z" />
<glyph unicode="&#xc5;" horiz-adv-x="1344" d="M0 0l516 1394h328l500 -1394h-376l-58 192h-516l-66 -192h-328zM486 464h338l-162 516zM390 1614q0 46 24.5 77t64.5 50t90.5 27t102.5 8q53 0 103.5 -8t91 -27t65 -50t24.5 -77q0 -47 -24.5 -78.5t-65 -50.5t-91 -27t-103.5 -8q-52 0 -102.5 8t-90.5 27t-64.5 50.5 t-24.5 78.5zM550 1614q0 -51 31.5 -74.5t90.5 -23.5t92.5 23.5t33.5 74.5q0 50 -33.5 73t-92.5 23t-90.5 -23t-31.5 -73z" />
<glyph unicode="&#xc6;" horiz-adv-x="1792" d="M-20 0l676 1394h1034l-64 -272h-466v-274h450v-274h-450v-300h514v-274h-876v192h-404l-86 -192h-328zM518 464h280v616z" />
<glyph unicode="&#xc7;" horiz-adv-x="1206" d="M82 724q0 154 53.5 282t151.5 220.5t236.5 144t308.5 51.5q106 0 188.5 -19t141.5 -49l-78 -274q-35 32 -102 50t-150 18q-94 0 -164 -31.5t-116.5 -88t-70 -134.5t-23.5 -170q0 -102 23 -187t67 -146.5t108 -96t146 -34.5q53 0 94.5 5t76.5 15.5t65.5 26t59.5 35.5 l64 -288q-23 -16 -62.5 -30.5t-88 -26t-102.5 -18.5t-107 -7q-129 0 -232.5 28.5t-183.5 79t-137.5 120.5t-94.5 153.5t-54.5 178t-17.5 192.5zM588 -94l114 122h112l-76 -78l86 -36q38 -17 65 -33.5t44.5 -36t26 -43.5t8.5 -55q0 -26 -11 -50.5t-27 -45.5t-33.5 -36.5 t-30.5 -23.5h-230q14 8 34.5 24t40 35t33.5 38.5t14 36.5q0 29 -17.5 44t-50.5 30l-102 42v66z" />
<glyph unicode="&#xc8;" horiz-adv-x="1160" d="M138 1736v42h298l142 -258v-42h-158zM166 0v1394h890l-62 -272h-468v-274h450v-274h-450v-300h514v-274h-874z" />
<glyph unicode="&#xc9;" horiz-adv-x="1158" d="M164 0v1394h890l-62 -272h-468v-274h450v-274h-450v-300h514v-274h-874zM498 1478v40l140 258h300v-40l-282 -258h-158z" />
<glyph unicode="&#xca;" horiz-adv-x="1158" d="M164 0v1394h890l-62 -272h-468v-274h450v-274h-450v-300h514v-274h-874zM250 1478v38l330 276l330 -276v-38h-142l-188 104l-186 -104h-144z" />
<glyph unicode="&#xcb;" horiz-adv-x="1158" d="M164 0v1394h890l-62 -272h-468v-274h450v-274h-450v-300h514v-274h-874zM208 1610q0 57 36 93.5t102 36.5t101 -36.5t35 -93.5t-35 -94.5t-101 -37.5t-102 37.5t-36 94.5zM678 1610q0 57 36 93.5t102 36.5t102 -36.5t36 -93.5t-36 -94.5t-102 -37.5t-102 37.5t-36 94.5z " />
<glyph unicode="&#xcc;" horiz-adv-x="688" d="M164 0v1394h360v-1394h-360zM90 1736v40h300l140 -258v-40h-156z" />
<glyph unicode="&#xcd;" horiz-adv-x="688" d="M164 0v1394h360v-1394h-360zM178 1478v40l140 258h300v-40l-282 -258h-158z" />
<glyph unicode="&#xce;" horiz-adv-x="688" d="M164 0v1394h360v-1394h-360zM26 1478v38l330 276l330 -276v-38h-142l-188 104l-186 -104h-144z" />
<glyph unicode="&#xcf;" horiz-adv-x="688" d="M164 0v1394h360v-1394h-360zM-16 1610q0 57 36 93.5t102 36.5t101 -36.5t35 -93.5t-35 -94.5t-101 -37.5t-102 37.5t-36 94.5zM454 1610q0 57 36 93.5t102 36.5t102 -36.5t36 -93.5t-36 -94.5t-102 -37.5t-102 37.5t-36 94.5z" />
<glyph unicode="&#xd0;" horiz-adv-x="1480" d="M34 606l50 222h80v566h516q176 0 310 -47t224.5 -134t137 -211t46.5 -278q0 -163 -46 -297t-134 -228.5t-216 -146.5t-292 -52h-546v606h-130zM524 274h140q88 0 155 32t112.5 91t69 142t23.5 185q0 98 -25.5 172.5t-71 124.5t-108.5 75.5t-139 25.5h-156v-294h194v-222 h-194v-332z" />
<glyph unicode="&#xd1;" horiz-adv-x="1546" d="M164 0v1394h282l608 -786v786h328v-1394h-264l-626 792v-792h-328zM484 1516v186l14 10q13 11 35 23t50 22.5t57 10.5q41 0 74 -17t64 -37t61.5 -37t64.5 -17q30 0 58.5 10.5t50.5 23.5t35 24l14 10v-182l-14 -10q-13 -11 -35 -24t-50.5 -23.5t-58.5 -10.5 q-40 0 -73.5 17t-64 37t-61 37t-65.5 17q-29 0 -57 -11t-50 -24t-35 -24z" />
<glyph unicode="&#xd2;" horiz-adv-x="1478" d="M82 710q0 159 45.5 290t131 225t207.5 145.5t274 51.5t273.5 -51.5t206.5 -145.5t130.5 -225t45.5 -290q0 -174 -45.5 -311t-130.5 -232t-206.5 -145t-273.5 -50t-274 50t-207.5 145t-131 232t-45.5 311zM458 710q0 -107 20 -191t56.5 -141.5t89 -87.5t116.5 -30 q65 0 116.5 30t88 87.5t56 141.5t19.5 191q0 109 -19.5 188.5t-56 132t-88 78t-116.5 25.5q-64 0 -116.5 -25.5t-89 -78t-56.5 -132t-20 -188.5zM354 1736v40h300l140 -258v-40h-156z" />
<glyph unicode="&#xd3;" horiz-adv-x="1478" d="M82 710q0 159 45.5 290t131 225t207.5 145.5t274 51.5t273.5 -51.5t206.5 -145.5t130.5 -225t45.5 -290q0 -174 -45.5 -311t-130.5 -232t-206.5 -145t-273.5 -50t-274 50t-207.5 145t-131 232t-45.5 311zM458 710q0 -107 20 -191t56.5 -141.5t89 -87.5t116.5 -30 q65 0 116.5 30t88 87.5t56 141.5t19.5 191q0 109 -19.5 188.5t-56 132t-88 78t-116.5 25.5q-64 0 -116.5 -25.5t-89 -78t-56.5 -132t-20 -188.5zM644 1478v40l140 258h300v-40l-282 -258h-158z" />
<glyph unicode="&#xd4;" horiz-adv-x="1478" d="M82 710q0 159 45.5 290t131 225t207.5 145.5t274 51.5t273.5 -51.5t206.5 -145.5t130.5 -225t45.5 -290q0 -174 -45.5 -311t-130.5 -232t-206.5 -145t-273.5 -50t-274 50t-207.5 145t-131 232t-45.5 311zM458 710q0 -107 20 -191t56.5 -141.5t89 -87.5t116.5 -30 q65 0 116.5 30t88 87.5t56 141.5t19.5 191q0 109 -19.5 188.5t-56 132t-88 78t-116.5 25.5q-64 0 -116.5 -25.5t-89 -78t-56.5 -132t-20 -188.5zM388 1478v38l330 276l330 -276v-38h-142l-188 104l-186 -104h-144z" />
<glyph unicode="&#xd5;" horiz-adv-x="1478" d="M82 710q0 159 45.5 290t131 225t207.5 145.5t274 51.5t273.5 -51.5t206.5 -145.5t130.5 -225t45.5 -290q0 -174 -45.5 -311t-130.5 -232t-206.5 -145t-273.5 -50t-274 50t-207.5 145t-131 232t-45.5 311zM458 710q0 -107 20 -191t56.5 -141.5t89 -87.5t116.5 -30 q65 0 116.5 30t88 87.5t56 141.5t19.5 191q0 109 -19.5 188.5t-56 132t-88 78t-116.5 25.5q-64 0 -116.5 -25.5t-89 -78t-56.5 -132t-20 -188.5zM430 1516v186l14 10q13 11 35 23t50 22.5t57 10.5q41 0 74 -17t64 -37t61.5 -37t64.5 -17q30 0 58.5 10.5t50.5 23.5t35 24 l14 10v-182l-14 -10q-13 -11 -35 -24t-50.5 -23.5t-58.5 -10.5q-40 0 -73.5 17t-64 37t-61 37t-65.5 17q-29 0 -57 -11t-50 -24t-35 -24z" />
<glyph unicode="&#xd6;" horiz-adv-x="1478" d="M82 710q0 159 45.5 290t131 225t207.5 145.5t274 51.5t273.5 -51.5t206.5 -145.5t130.5 -225t45.5 -290q0 -174 -45.5 -311t-130.5 -232t-206.5 -145t-273.5 -50t-274 50t-207.5 145t-131 232t-45.5 311zM458 710q0 -107 20 -191t56.5 -141.5t89 -87.5t116.5 -30 q65 0 116.5 30t88 87.5t56 141.5t19.5 191q0 109 -19.5 188.5t-56 132t-88 78t-116.5 25.5q-64 0 -116.5 -25.5t-89 -78t-56.5 -132t-20 -188.5zM326 1610q0 57 36 93.5t102 36.5t101 -36.5t35 -93.5t-35 -94.5t-101 -37.5t-102 37.5t-36 94.5zM796 1610q0 57 36 93.5 t102 36.5t102 -36.5t36 -93.5t-36 -94.5t-102 -37.5t-102 37.5t-36 94.5z" />
<glyph unicode="&#xd7;" horiz-adv-x="1064" d="M124 404l230 228l-206 208l178 178l206 -206l230 228l178 -178l-230 -230l208 -208l-178 -178l-208 208l-228 -228z" />
<glyph unicode="&#xd8;" horiz-adv-x="1478" d="M82 710q0 159 45.5 290t131 225t207.5 145.5t274 51.5q125 0 229 -34.5t185 -99.5q1 0 12 14t26 33t31 39.5t26 33.5t11 14h150q-1 -2 -17.5 -23t-42.5 -54t-51 -64.5t-43.5 -54t-19.5 -22.5q78 -92 119 -217t41 -277q0 -174 -45.5 -311t-130.5 -232t-206.5 -145 t-273.5 -50q-115 0 -211 27.5t-173 80.5l-106 -134h-152l12 16q13 16 31.5 39.5t40.5 51t40.5 51t31 39.5t12.5 15q-89 95 -136.5 234.5t-47.5 317.5zM458 710q0 -77 11 -141t29 -115l450 572q-36 56 -89 82t-119 26q-64 0 -116.5 -25.5t-89 -78t-56.5 -132t-20 -188.5z M540 342q35 -41 80 -61.5t98 -20.5q65 0 117 30t88.5 87.5t56.5 141.5t20 191q0 56 -5 103t-17 89z" />
<glyph unicode="&#xd9;" horiz-adv-x="1546" d="M164 588v806h360v-806q0 -92 21.5 -155t56.5 -101.5t80 -55t92 -16.5t92 16.5t80 55t56.5 101.5t21.5 155v806h358v-806q0 -169 -46.5 -286.5t-128.5 -191t-193 -106t-240 -32.5q-135 0 -247 32.5t-193 106t-125.5 191t-44.5 286.5zM432 1736v40h300l140 -258v-40h-156z " />
<glyph unicode="&#xda;" horiz-adv-x="1546" d="M164 588v806h360v-806q0 -92 21.5 -155t56.5 -101.5t80 -55t92 -16.5t92 16.5t80 55t56.5 101.5t21.5 155v806h358v-806q0 -169 -46.5 -286.5t-128.5 -191t-193 -106t-240 -32.5q-135 0 -247 32.5t-193 106t-125.5 191t-44.5 286.5zM706 1478v40l140 258h300v-40 l-282 -258h-158z" />
<glyph unicode="&#xdb;" horiz-adv-x="1546" d="M164 588v806h360v-806q0 -92 21.5 -155t56.5 -101.5t80 -55t92 -16.5t92 16.5t80 55t56.5 101.5t21.5 155v806h358v-806q0 -169 -46.5 -286.5t-128.5 -191t-193 -106t-240 -32.5q-135 0 -247 32.5t-193 106t-125.5 191t-44.5 286.5zM450 1478v38l330 276l330 -276v-38 h-142l-188 104l-186 -104h-144z" />
<glyph unicode="&#xdc;" horiz-adv-x="1546" d="M164 588v806h360v-806q0 -92 21.5 -155t56.5 -101.5t80 -55t92 -16.5t92 16.5t80 55t56.5 101.5t21.5 155v806h358v-806q0 -169 -46.5 -286.5t-128.5 -191t-193 -106t-240 -32.5q-135 0 -247 32.5t-193 106t-125.5 191t-44.5 286.5zM428 1610q0 57 36 93.5t102 36.5 t101 -36.5t35 -93.5t-35 -94.5t-101 -37.5t-102 37.5t-36 94.5zM898 1610q0 57 36 93.5t102 36.5t102 -36.5t36 -93.5t-36 -94.5t-102 -37.5t-102 37.5t-36 94.5z" />
<glyph unicode="&#xdd;" horiz-adv-x="1266" d="M0 1380l376 30l280 -562l282 562l328 -30l-454 -870v-510h-358v482zM578 1478v40l140 258h300v-40l-282 -258h-158z" />
<glyph unicode="&#xde;" horiz-adv-x="1296" d="M164 0v1394h360v-184h170q128 0 232 -32.5t177.5 -92.5t113 -146t39.5 -193q0 -118 -38.5 -211.5t-106 -159t-159 -100.5t-196.5 -35h-140l62 260h30q97 0 141.5 59.5t44.5 172.5q0 56 -19.5 95t-53 63.5t-78.5 36t-97 11.5h-122v-938h-360z" />
<glyph unicode="&#xdf;" horiz-adv-x="1310" d="M-32 820l48 220h94v36q0 107 44.5 187.5t119.5 134t173.5 80t206.5 26.5q221 0 338.5 -88.5t117.5 -265.5q0 -60 -18.5 -104.5t-46.5 -78t-60 -58.5t-60 -47.5t-46.5 -44t-18.5 -47.5q0 -30 22.5 -46.5t55.5 -31.5l100 -48q46 -22 86.5 -48.5t71 -62.5t48.5 -83t18 -112 q0 -103 -33.5 -171t-92 -108.5t-137.5 -56.5t-169 -16q-27 0 -64 2.5t-77.5 8.5t-81 15t-75.5 22l84 254q12 -7 31.5 -19t46.5 -23.5t61 -19.5t75 -8q26 0 46.5 8t34 20.5t20.5 29t7 32.5q0 42 -20.5 68t-65.5 44l-108 46q-95 41 -145.5 110.5t-50.5 155.5q0 56 18.5 96.5 t46.5 71.5t60 57t60 53t46.5 59.5t18.5 76.5q0 19 -8 43t-26 45.5t-48 36.5t-74 15q-57 0 -96 -13.5t-63 -41.5t-34.5 -71t-10.5 -102v-1058h-328v820h-142z" />
<glyph unicode="&#xe0;" horiz-adv-x="1188" d="M78 300q0 87 37 148.5t97 102t135.5 62.5t152.5 29l218 20v8q0 92 -45.5 135t-140.5 43q-47 0 -93.5 -10t-88.5 -25.5t-79.5 -35t-66.5 -39.5l-78 220q35 20 86 41.5t111 39.5t125.5 29.5t129.5 11.5q106 0 192 -19t147.5 -62.5t95 -114t33.5 -174.5v-504l32 -206h-312 l-28 104q-23 -22 -52 -43t-65 -37.5t-81.5 -27t-101.5 -10.5q-76 0 -142 20t-114.5 59.5t-76 98.5t-27.5 136zM406 328q0 -62 42 -92t114 -30q44 0 84 14.5t72 37.5v238l-156 -18q-31 -4 -59.5 -14.5t-50 -28.5t-34 -44.5t-12.5 -62.5zM228 1450v40h300l140 -258v-40h-156z " />
<glyph unicode="&#xe1;" horiz-adv-x="1188" d="M78 300q0 87 37 148.5t97 102t135.5 62.5t152.5 29l218 20v8q0 92 -45.5 135t-140.5 43q-47 0 -93.5 -10t-88.5 -25.5t-79.5 -35t-66.5 -39.5l-78 220q35 20 86 41.5t111 39.5t125.5 29.5t129.5 11.5q106 0 192 -19t147.5 -62.5t95 -114t33.5 -174.5v-504l32 -206h-312 l-28 104q-23 -22 -52 -43t-65 -37.5t-81.5 -27t-101.5 -10.5q-76 0 -142 20t-114.5 59.5t-76 98.5t-27.5 136zM406 328q0 -62 42 -92t114 -30q44 0 84 14.5t72 37.5v238l-156 -18q-31 -4 -59.5 -14.5t-50 -28.5t-34 -44.5t-12.5 -62.5zM498 1192v40l140 258h300v-40 l-282 -258h-158z" />
<glyph unicode="&#xe2;" horiz-adv-x="1188" d="M78 300q0 87 37 148.5t97 102t135.5 62.5t152.5 29l218 20v8q0 92 -45.5 135t-140.5 43q-47 0 -93.5 -10t-88.5 -25.5t-79.5 -35t-66.5 -39.5l-78 220q35 20 86 41.5t111 39.5t125.5 29.5t129.5 11.5q106 0 192 -19t147.5 -62.5t95 -114t33.5 -174.5v-504l32 -206h-312 l-28 104q-23 -22 -52 -43t-65 -37.5t-81.5 -27t-101.5 -10.5q-76 0 -142 20t-114.5 59.5t-76 98.5t-27.5 136zM406 328q0 -62 42 -92t114 -30q44 0 84 14.5t72 37.5v238l-156 -18q-31 -4 -59.5 -14.5t-50 -28.5t-34 -44.5t-12.5 -62.5zM268 1192v38l330 276l330 -276v-38 h-142l-188 104l-186 -104h-144z" />
<glyph unicode="&#xe3;" horiz-adv-x="1188" d="M78 300q0 87 37 148.5t97 102t135.5 62.5t152.5 29l218 20v8q0 92 -45.5 135t-140.5 43q-47 0 -93.5 -10t-88.5 -25.5t-79.5 -35t-66.5 -39.5l-78 220q35 20 86 41.5t111 39.5t125.5 29.5t129.5 11.5q106 0 192 -19t147.5 -62.5t95 -114t33.5 -174.5v-504l32 -206h-312 l-28 104q-23 -22 -52 -43t-65 -37.5t-81.5 -27t-101.5 -10.5q-76 0 -142 20t-114.5 59.5t-76 98.5t-27.5 136zM406 328q0 -62 42 -92t114 -30q44 0 84 14.5t72 37.5v238l-156 -18q-31 -4 -59.5 -14.5t-50 -28.5t-34 -44.5t-12.5 -62.5zM310 1230v186l14 10q13 11 35 23 t50 22.5t57 10.5q41 0 74 -17t64 -37t61.5 -37t64.5 -17q30 0 58.5 10.5t50.5 23.5t35 24l14 10v-182l-14 -10q-13 -11 -35 -24t-50.5 -23.5t-58.5 -10.5q-40 0 -73.5 17t-64 37t-61 37t-65.5 17q-29 0 -57 -11t-50 -24t-35 -24z" />
<glyph unicode="&#xe4;" horiz-adv-x="1188" d="M78 300q0 87 37 148.5t97 102t135.5 62.5t152.5 29l218 20v8q0 92 -45.5 135t-140.5 43q-47 0 -93.5 -10t-88.5 -25.5t-79.5 -35t-66.5 -39.5l-78 220q35 20 86 41.5t111 39.5t125.5 29.5t129.5 11.5q106 0 192 -19t147.5 -62.5t95 -114t33.5 -174.5v-504l32 -206h-312 l-28 104q-23 -22 -52 -43t-65 -37.5t-81.5 -27t-101.5 -10.5q-76 0 -142 20t-114.5 59.5t-76 98.5t-27.5 136zM406 328q0 -62 42 -92t114 -30q44 0 84 14.5t72 37.5v238l-156 -18q-31 -4 -59.5 -14.5t-50 -28.5t-34 -44.5t-12.5 -62.5zM204 1324q0 57 36 93.5t102 36.5 t101 -36.5t35 -93.5t-35 -94.5t-101 -37.5t-102 37.5t-36 94.5zM674 1324q0 57 36 93.5t102 36.5t102 -36.5t36 -93.5t-36 -94.5t-102 -37.5t-102 37.5t-36 94.5z" />
<glyph unicode="&#xe5;" horiz-adv-x="1188" d="M78 300q0 87 37 148.5t97 102t135.5 62.5t152.5 29l218 20v8q0 92 -45.5 135t-140.5 43q-47 0 -93.5 -10t-88.5 -25.5t-79.5 -35t-66.5 -39.5l-78 220q35 20 86 41.5t111 39.5t125.5 29.5t129.5 11.5q106 0 192 -19t147.5 -62.5t95 -114t33.5 -174.5v-504l32 -206h-312 l-28 104q-23 -22 -52 -43t-65 -37.5t-81.5 -27t-101.5 -10.5q-76 0 -142 20t-114.5 59.5t-76 98.5t-27.5 136zM406 328q0 -62 42 -92t114 -30q44 0 84 14.5t72 37.5v238l-156 -18q-31 -4 -59.5 -14.5t-50 -28.5t-34 -44.5t-12.5 -62.5zM316 1328q0 46 24.5 77t64.5 50 t90.5 27t102.5 8q53 0 103.5 -8t91 -27t65 -50t24.5 -77q0 -47 -24.5 -78.5t-65 -50.5t-91 -27t-103.5 -8q-52 0 -102.5 8t-90.5 27t-64.5 50.5t-24.5 78.5zM476 1328q0 -51 31.5 -74.5t90.5 -23.5t92.5 23.5t33.5 74.5q0 50 -33.5 73t-92.5 23t-90.5 -23t-31.5 -73z" />
<glyph unicode="&#xe6;" horiz-adv-x="1796" d="M78 300q0 87 37 148.5t97 102t135.5 62.5t152.5 29l218 20v8q0 92 -45.5 135t-140.5 43q-47 0 -93.5 -10t-88.5 -25.5t-79.5 -35t-66.5 -39.5l-78 220q35 20 86 41.5t111 39.5t125.5 29.5t129.5 11.5q110 0 199 -21.5t151 -68.5q66 44 148 67t176 23q111 0 198 -28.5 t147 -78.5t91.5 -117.5t31.5 -145.5q0 -30 -3.5 -97t-26.5 -161h-636q11 -66 34.5 -111t59 -72t81.5 -39t101 -12q35 0 72.5 5t72.5 14t66.5 22t54.5 29l78 -206q-42 -25 -84.5 -43.5t-90.5 -30t-104.5 -17t-126.5 -5.5q-143 0 -252.5 41t-181.5 133q-47 -42 -92.5 -74.5 t-93 -54.5t-99 -33.5t-111.5 -11.5q-76 0 -142 20t-114.5 59.5t-76 98.5t-27.5 136zM406 328q0 -62 42 -92t114 -30q35 0 86 15.5t114 62.5q-17 45 -28 98.5t-14 113.5l-158 -18q-31 -4 -59.5 -14.5t-50 -28.5t-34 -44.5t-12.5 -62.5zM1052 656h372v28q0 81 -39.5 129.5 t-132.5 48.5q-34 0 -66 -11.5t-58.5 -36.5t-46 -64t-29.5 -94z" />
<glyph unicode="&#xe7;" horiz-adv-x="938" d="M62 546q0 140 46 240.5t124 166t180 96.5t214 31q47 0 90.5 -5t79.5 -12.5t64.5 -17t45.5 -19.5l-62 -220q-18 17 -41 27.5t-48.5 17t-50.5 9t-48 2.5q-47 0 -92 -18.5t-80 -57t-56.5 -98t-21.5 -142.5q0 -97 21.5 -160t56.5 -100.5t80 -52.5t92 -15q23 0 50.5 5t54 12.5 t49 18t34.5 20.5l78 -206q-23 -16 -57 -30.5t-75 -26t-87 -18.5t-93 -7q-118 0 -218 32t-173.5 100t-115 174t-41.5 254zM410 -94l114 122h112l-76 -78l86 -36q38 -17 65 -33.5t44.5 -36t26 -43.5t8.5 -55q0 -26 -11 -50.5t-27 -45.5t-33.5 -36.5t-30.5 -23.5h-230 q14 8 34.5 24t40 35t33.5 38.5t14 36.5q0 29 -17.5 44t-50.5 30l-102 42v66z" />
<glyph unicode="&#xe8;" horiz-adv-x="1138" d="M62 546q0 134 41 234.5t112.5 167t169 99.5t209.5 33q111 0 198 -28.5t147 -78.5t91.5 -117.5t31.5 -145.5q0 -30 -3.5 -97t-26.5 -161h-634q10 -66 33.5 -111t58.5 -72t81 -39t101 -12q35 0 72.5 5t72.5 14t66.5 22t54.5 29l78 -206q-41 -25 -83.5 -43.5t-91 -30 t-105 -17t-126.5 -5.5q-123 0 -224 32t-173 100t-111.5 174t-39.5 254zM396 656h370v28q0 81 -39.5 129.5t-132.5 48.5q-34 0 -66 -11.5t-58.5 -36.5t-45.5 -64t-28 -94zM246 1450v40h300l140 -258v-40h-156z" />
<glyph unicode="&#xe9;" horiz-adv-x="1138" d="M62 546q0 134 41 234.5t112.5 167t169 99.5t209.5 33q111 0 198 -28.5t147 -78.5t91.5 -117.5t31.5 -145.5q0 -30 -3.5 -97t-26.5 -161h-634q10 -66 33.5 -111t58.5 -72t81 -39t101 -12q35 0 72.5 5t72.5 14t66.5 22t54.5 29l78 -206q-41 -25 -83.5 -43.5t-91 -30 t-105 -17t-126.5 -5.5q-123 0 -224 32t-173 100t-111.5 174t-39.5 254zM396 656h370v28q0 81 -39.5 129.5t-132.5 48.5q-34 0 -66 -11.5t-58.5 -36.5t-45.5 -64t-28 -94zM514 1192v40l140 258h300v-40l-282 -258h-158z" />
<glyph unicode="&#xea;" horiz-adv-x="1138" d="M62 546q0 134 41 234.5t112.5 167t169 99.5t209.5 33q111 0 198 -28.5t147 -78.5t91.5 -117.5t31.5 -145.5q0 -30 -3.5 -97t-26.5 -161h-634q10 -66 33.5 -111t58.5 -72t81 -39t101 -12q35 0 72.5 5t72.5 14t66.5 22t54.5 29l78 -206q-41 -25 -83.5 -43.5t-91 -30 t-105 -17t-126.5 -5.5q-123 0 -224 32t-173 100t-111.5 174t-39.5 254zM396 656h370v28q0 81 -39.5 129.5t-132.5 48.5q-34 0 -66 -11.5t-58.5 -36.5t-45.5 -64t-28 -94zM264 1192v38l330 276l330 -276v-38h-142l-188 104l-186 -104h-144z" />
<glyph unicode="&#xeb;" horiz-adv-x="1138" d="M62 546q0 134 41 234.5t112.5 167t169 99.5t209.5 33q111 0 198 -28.5t147 -78.5t91.5 -117.5t31.5 -145.5q0 -30 -3.5 -97t-26.5 -161h-634q10 -66 33.5 -111t58.5 -72t81 -39t101 -12q35 0 72.5 5t72.5 14t66.5 22t54.5 29l78 -206q-41 -25 -83.5 -43.5t-91 -30 t-105 -17t-126.5 -5.5q-123 0 -224 32t-173 100t-111.5 174t-39.5 254zM396 656h370v28q0 81 -39.5 129.5t-132.5 48.5q-34 0 -66 -11.5t-58.5 -36.5t-45.5 -64t-28 -94zM222 1324q0 57 36 93.5t102 36.5t101 -36.5t35 -93.5t-35 -94.5t-101 -37.5t-102 37.5t-36 94.5z M692 1324q0 57 36 93.5t102 36.5t102 -36.5t36 -93.5t-36 -94.5t-102 -37.5t-102 37.5t-36 94.5z" />
<glyph unicode="&#xec;" horiz-adv-x="610" d="M140 0v1040l328 40v-1080h-328zM22 1450v40h300l140 -258v-40h-156z" />
<glyph unicode="&#xed;" horiz-adv-x="610" d="M140 0v1040l328 40v-1080h-328zM144 1192v40l140 258h300v-40l-282 -258h-158z" />
<glyph unicode="&#xee;" horiz-adv-x="610" d="M140 0v1040l328 40v-1080h-328zM-36 1192v38l330 276l330 -276v-38h-142l-188 104l-186 -104h-144z" />
<glyph unicode="&#xef;" horiz-adv-x="610" d="M140 0v1040l328 40v-1080h-328zM-64 1324q0 57 36 93.5t102 36.5t101 -36.5t35 -93.5t-35 -94.5t-101 -37.5t-102 37.5t-36 94.5zM406 1324q0 57 36 93.5t102 36.5t102 -36.5t36 -93.5t-36 -94.5t-102 -37.5t-102 37.5t-36 94.5z" />
<glyph unicode="&#xf0;" horiz-adv-x="1218" d="M62 494q0 116 35 209.5t104 159t171.5 100.5t237.5 35q21 0 46 -4t49 -11.5t45.5 -17.5t35.5 -21q-9 85 -50 147t-106 103l-224 -140l-58 96l156 98q-32 8 -64 11t-68 3h-90v228h70q252 0 414 -84l134 82l56 -94l-13 -8q-13 -8 -29 -18t-29.5 -18t-14.5 -8 q78 -59 132.5 -140t88.5 -180.5t49.5 -216.5t15.5 -249q0 -123 -35 -227.5t-104 -180.5t-171 -119t-236 -43q-135 0 -237.5 36.5t-171.5 103.5t-104 160.5t-35 207.5zM406 494q0 -72 10 -126t33.5 -90t63 -54t97.5 -18q59 0 97.5 18t62 54t33 90t9.5 126q0 66 -9.5 119 t-33 90t-62 57t-97.5 20q-58 0 -97.5 -20t-63 -57t-33.5 -90t-10 -119z" />
<glyph unicode="&#xf1;" horiz-adv-x="1310" d="M140 0v1040l328 40v-130q75 71 150.5 100.5t161.5 29.5q83 0 154.5 -21.5t124 -67.5t83 -118.5t30.5 -174.5v-698h-328v628q0 57 -12.5 96.5t-34.5 63.5t-52 35t-65 11q-62 0 -113 -24.5t-99 -77.5v-732h-328zM366 1230v186l14 10q13 11 35 23t50 22.5t57 10.5 q41 0 74 -17t64 -37t61.5 -37t64.5 -17q30 0 58.5 10.5t50.5 23.5t35 24l14 10v-182l-14 -10q-13 -11 -35 -24t-50.5 -23.5t-58.5 -10.5q-40 0 -73.5 17t-64 37t-61 37t-65.5 17q-29 0 -57 -11t-50 -24t-35 -24z" />
<glyph unicode="&#xf2;" horiz-adv-x="1216" d="M62 534q0 128 35 229.5t104 172t171.5 107.5t237.5 37q134 0 236 -37t171 -107.5t104 -172t35 -229.5q0 -123 -35 -224t-104 -173t-171 -111.5t-236 -39.5q-135 0 -237.5 39.5t-171.5 111.5t-104 173t-35 224zM406 534q0 -72 10 -132t33.5 -103.5t63 -68t97.5 -24.5 q59 0 97.5 24.5t62 68t33 103.5t9.5 132q0 66 -9.5 125.5t-33 104.5t-62 71.5t-97.5 26.5q-58 0 -97.5 -26.5t-63 -71.5t-33.5 -104.5t-10 -125.5zM264 1450v40h300l140 -258v-40h-156z" />
<glyph unicode="&#xf3;" horiz-adv-x="1216" d="M62 534q0 128 35 229.5t104 172t171.5 107.5t237.5 37q134 0 236 -37t171 -107.5t104 -172t35 -229.5q0 -123 -35 -224t-104 -173t-171 -111.5t-236 -39.5q-135 0 -237.5 39.5t-171.5 111.5t-104 173t-35 224zM406 534q0 -72 10 -132t33.5 -103.5t63 -68t97.5 -24.5 q59 0 97.5 24.5t62 68t33 103.5t9.5 132q0 66 -9.5 125.5t-33 104.5t-62 71.5t-97.5 26.5q-58 0 -97.5 -26.5t-63 -71.5t-33.5 -104.5t-10 -125.5zM512 1192v40l140 258h300v-40l-282 -258h-158z" />
<glyph unicode="&#xf4;" horiz-adv-x="1216" d="M62 534q0 128 35 229.5t104 172t171.5 107.5t237.5 37q134 0 236 -37t171 -107.5t104 -172t35 -229.5q0 -123 -35 -224t-104 -173t-171 -111.5t-236 -39.5q-135 0 -237.5 39.5t-171.5 111.5t-104 173t-35 224zM406 534q0 -72 10 -132t33.5 -103.5t63 -68t97.5 -24.5 q59 0 97.5 24.5t62 68t33 103.5t9.5 132q0 66 -9.5 125.5t-33 104.5t-62 71.5t-97.5 26.5q-58 0 -97.5 -26.5t-63 -71.5t-33.5 -104.5t-10 -125.5zM262 1192v38l330 276l330 -276v-38h-142l-188 104l-186 -104h-144z" />
<glyph unicode="&#xf5;" horiz-adv-x="1216" d="M62 534q0 128 35 229.5t104 172t171.5 107.5t237.5 37q134 0 236 -37t171 -107.5t104 -172t35 -229.5q0 -123 -35 -224t-104 -173t-171 -111.5t-236 -39.5q-135 0 -237.5 39.5t-171.5 111.5t-104 173t-35 224zM406 534q0 -72 10 -132t33.5 -103.5t63 -68t97.5 -24.5 q59 0 97.5 24.5t62 68t33 103.5t9.5 132q0 66 -9.5 125.5t-33 104.5t-62 71.5t-97.5 26.5q-58 0 -97.5 -26.5t-63 -71.5t-33.5 -104.5t-10 -125.5zM324 1230v186l14 10q13 11 35 23t50 22.5t57 10.5q41 0 74 -17t64 -37t61.5 -37t64.5 -17q30 0 58.5 10.5t50.5 23.5t35 24 l14 10v-182l-14 -10q-13 -11 -35 -24t-50.5 -23.5t-58.5 -10.5q-40 0 -73.5 17t-64 37t-61 37t-65.5 17q-29 0 -57 -11t-50 -24t-35 -24z" />
<glyph unicode="&#xf6;" horiz-adv-x="1216" d="M62 534q0 128 35 229.5t104 172t171.5 107.5t237.5 37q134 0 236 -37t171 -107.5t104 -172t35 -229.5q0 -123 -35 -224t-104 -173t-171 -111.5t-236 -39.5q-135 0 -237.5 39.5t-171.5 111.5t-104 173t-35 224zM406 534q0 -72 10 -132t33.5 -103.5t63 -68t97.5 -24.5 q59 0 97.5 24.5t62 68t33 103.5t9.5 132q0 66 -9.5 125.5t-33 104.5t-62 71.5t-97.5 26.5q-58 0 -97.5 -26.5t-63 -71.5t-33.5 -104.5t-10 -125.5zM220 1324q0 57 36 93.5t102 36.5t101 -36.5t35 -93.5t-35 -94.5t-101 -37.5t-102 37.5t-36 94.5zM690 1324q0 57 36 93.5 t102 36.5t102 -36.5t36 -93.5t-36 -94.5t-102 -37.5t-102 37.5t-36 94.5z" />
<glyph unicode="&#xf7;" horiz-adv-x="1064" d="M112 512v254h840v-254h-840zM352 262q0 35 12 67t34.5 56t56.5 38.5t77 14.5q44 0 78 -15t57 -40t35 -56.5t12 -64.5q0 -34 -11.5 -66t-34 -56.5t-56.5 -39t-78 -14.5q-43 0 -77 15.5t-57.5 40.5t-35.5 56.5t-12 63.5zM352 1014q0 35 12 67t34.5 56t56.5 38.5t77 14.5 q44 0 78 -15t57 -40t35 -56.5t12 -64.5q0 -34 -11.5 -66t-34 -56.5t-56.5 -39t-78 -14.5q-43 0 -77 15.5t-57.5 40.5t-35.5 56.5t-12 63.5z" />
<glyph unicode="&#xf8;" horiz-adv-x="1216" d="M62 534q0 128 35 229.5t104 172t171.5 107.5t237.5 37q92 0 167 -17t135 -49q1 0 9 10.5t17.5 22.5t17.5 23l8 10h150l-106 -136q74 -71 111 -174t37 -236q0 -123 -35 -224t-104 -173t-171 -111.5t-236 -39.5q-89 0 -162.5 17.5t-135.5 50.5l-82 -108h-152l138 176 q-77 72 -115.5 176.5t-38.5 235.5zM406 534q0 -41 3 -79t11 -73l326 418q-24 30 -56.5 46t-79.5 16q-58 0 -97.5 -26.5t-63 -71.5t-33.5 -104.5t-10 -125.5zM476 262q23 -26 56 -41t78 -15q59 0 97.5 24.5t62 68t33 103.5t9.5 132q0 38 -4 73.5t-10 68.5z" />
<glyph unicode="&#xf9;" horiz-adv-x="1294" d="M126 370v682l328 28v-642q0 -56 12.5 -95.5t34.5 -64t52 -35.5t65 -11q62 0 112 24t98 80v716l328 28v-1052l-328 -42v134q-74 -72 -154 -103t-166 -31q-82 0 -152 21.5t-121 68t-80 119t-29 175.5zM282 1450v40h300l140 -258v-40h-156z" />
<glyph unicode="&#xfa;" horiz-adv-x="1294" d="M126 370v682l328 28v-642q0 -56 12.5 -95.5t34.5 -64t52 -35.5t65 -11q62 0 112 24t98 80v716l328 28v-1052l-328 -42v134q-74 -72 -154 -103t-166 -31q-82 0 -152 21.5t-121 68t-80 119t-29 175.5zM552 1192v40l140 258h300v-40l-282 -258h-158z" />
<glyph unicode="&#xfb;" horiz-adv-x="1294" d="M126 370v682l328 28v-642q0 -56 12.5 -95.5t34.5 -64t52 -35.5t65 -11q62 0 112 24t98 80v716l328 28v-1052l-328 -42v134q-74 -72 -154 -103t-166 -31q-82 0 -152 21.5t-121 68t-80 119t-29 175.5zM296 1192v38l330 276l330 -276v-38h-142l-188 104l-186 -104h-144z" />
<glyph unicode="&#xfc;" horiz-adv-x="1294" d="M126 370v682l328 28v-642q0 -56 12.5 -95.5t34.5 -64t52 -35.5t65 -11q62 0 112 24t98 80v716l328 28v-1052l-328 -42v134q-74 -72 -154 -103t-166 -31q-82 0 -152 21.5t-121 68t-80 119t-29 175.5zM254 1324q0 57 36 93.5t102 36.5t101 -36.5t35 -93.5t-35 -94.5 t-101 -37.5t-102 37.5t-36 94.5zM724 1324q0 57 36 93.5t102 36.5t102 -36.5t36 -93.5t-36 -94.5t-102 -37.5t-102 37.5t-36 94.5z" />
<glyph unicode="&#xfd;" horiz-adv-x="1078" d="M0 1040l344 40l218 -698l250 698l266 -28l-390 -1052q-28 -77 -67.5 -152.5t-92.5 -136t-121.5 -98t-156.5 -37.5q-70 0 -109 8.5t-63 19.5v218q24 -11 58.5 -19.5t81.5 -8.5q71 0 110 31t62 93l10 28zM484 1192v40l140 258h300v-40l-282 -258h-158z" />
<glyph unicode="&#xfe;" horiz-adv-x="1282" d="M140 -410v1862l328 38v-532q48 51 125 86.5t173 35.5q101 0 184 -29t142.5 -89t92.5 -153t33 -221q0 -139 -35 -250.5t-106.5 -189.5t-180 -120t-254.5 -42q-58 0 -98 9t-76 19v-424h-328zM468 218q24 -10 42.5 -15.5t35 -8t31.5 -2.5h33q65 0 114.5 24.5t83 69.5t51 108 t17.5 140q0 92 -19 150.5t-51 91.5t-74.5 45.5t-89.5 12.5q-36 0 -63 -7t-47.5 -17.5t-35.5 -22t-28 -21.5v-548z" />
<glyph unicode="&#xff;" horiz-adv-x="1078" d="M0 1040l344 40l218 -698l250 698l266 -28l-390 -1052q-28 -77 -67.5 -152.5t-92.5 -136t-121.5 -98t-156.5 -37.5q-70 0 -109 8.5t-63 19.5v218q24 -11 58.5 -19.5t81.5 -8.5q71 0 110 31t62 93l10 28zM210 1324q0 57 36 93.5t102 36.5t101 -36.5t35 -93.5t-35 -94.5 t-101 -37.5t-102 37.5t-36 94.5zM680 1324q0 57 36 93.5t102 36.5t102 -36.5t36 -93.5t-36 -94.5t-102 -37.5t-102 37.5t-36 94.5z" />
<glyph unicode="&#x131;" horiz-adv-x="610" d="M140 0v1040l328 40v-1080h-328z" />
<glyph unicode="&#x152;" horiz-adv-x="1946" d="M82 710q0 159 45.5 286.5t131 217.5t207.5 138t274 48q56 0 110.5 -11t101.5 -37v42h892l-64 -272h-468v-274h452v-274h-452v-300h514v-274h-874v40q-47 -26 -100 -37t-112 -11q-152 0 -274 47t-207.5 138t-131 225t-45.5 308zM458 710q0 -107 20 -187.5t56.5 -134.5 t89 -81t116.5 -27q68 0 122 33.5t90 98.5v586q-36 59 -90 87.5t-122 28.5q-79 0 -133 -31t-87 -85.5t-47.5 -128t-14.5 -159.5z" />
<glyph unicode="&#x153;" horiz-adv-x="1888" d="M62 534q0 128 35 229.5t104 172t171.5 107.5t237.5 37q121 0 214 -29.5t162 -86.5q71 59 161.5 87.5t196.5 28.5q111 0 198 -28.5t147 -78.5t91.5 -117.5t31.5 -145.5q0 -30 -3.5 -97t-26.5 -161h-632q6 -62 28 -106.5t57.5 -73t83 -41.5t103.5 -13q35 0 72.5 5t72.5 14 t66.5 22t54.5 29l78 -206q-42 -25 -84.5 -43.5t-90.5 -30t-104.5 -17t-126.5 -5.5q-116 0 -213 28t-169 88q-68 -56 -159 -86t-209 -30q-135 0 -237.5 39.5t-171.5 111.5t-104 173t-35 224zM406 534q0 -72 10 -132t33.5 -103.5t63 -68t97.5 -24.5q59 0 97.5 24.5t62 68 t33 103.5t9.5 132q0 66 -9.5 125.5t-33 104.5t-62 71.5t-97.5 26.5q-58 0 -97.5 -26.5t-63 -71.5t-33.5 -104.5t-10 -125.5zM1146 656h370v28q0 81 -39.5 129.5t-132.5 48.5q-41 0 -75 -14.5t-59.5 -41.5t-42 -65t-21.5 -85z" />
<glyph unicode="&#x178;" horiz-adv-x="1266" d="M0 1380l376 30l280 -562l282 562l328 -30l-454 -870v-510h-358v482zM260 1610q0 57 36 93.5t102 36.5t101 -36.5t35 -93.5t-35 -94.5t-101 -37.5t-102 37.5t-36 94.5zM730 1610q0 57 36 93.5t102 36.5t102 -36.5t36 -93.5t-36 -94.5t-102 -37.5t-102 37.5t-36 94.5z" />
<glyph unicode="&#x2c6;" d="M294 1192v38l330 276l330 -276v-38h-142l-188 104l-186 -104h-144z" />
<glyph unicode="&#x2c7;" d="M308 1450v40h122q1 -1 8.5 -15t24 -36.5t39.5 -43.5t54 -36t68 -15t68.5 15t55 36t40 43.5t24 36.5t8.5 15h122v-40l-6 -20q-7 -20 -22 -50.5t-39 -65.5t-59.5 -65.5t-82.5 -50.5t-109 -20q-61 0 -108.5 20t-82.5 50.5t-59 65.5t-38.5 65.5t-21.5 50.5z" />
<glyph unicode="&#x2da;" d="M342 1328q0 46 24.5 77t64.5 50t90.5 27t102.5 8q53 0 103.5 -8t91 -27t65 -50t24.5 -77q0 -47 -24.5 -78.5t-65 -50.5t-91 -27t-103.5 -8q-52 0 -102.5 8t-90.5 27t-64.5 50.5t-24.5 78.5zM502 1328q0 -51 31.5 -74.5t90.5 -23.5t92.5 23.5t33.5 74.5q0 50 -33.5 73 t-92.5 23t-90.5 -23t-31.5 -73z" />
<glyph unicode="&#x2dc;" d="M336 1230v186l14 10q13 11 35 23t50 22.5t57 10.5q41 0 74 -17t64 -37t61.5 -37t64.5 -17q30 0 58.5 10.5t50.5 23.5t35 24l14 10v-182l-14 -10q-13 -11 -35 -24t-50.5 -23.5t-58.5 -10.5q-40 0 -73.5 17t-64 37t-61 37t-65.5 17q-29 0 -57 -11t-50 -24t-35 -24z" />
<glyph unicode="&#x2000;" horiz-adv-x="896" />
<glyph unicode="&#x2001;" horiz-adv-x="1792" />
<glyph unicode="&#x2002;" horiz-adv-x="896" />
<glyph unicode="&#x2003;" horiz-adv-x="1792" />
<glyph unicode="&#x2004;" horiz-adv-x="597" />
<glyph unicode="&#x2005;" horiz-adv-x="448" />
<glyph unicode="&#x2006;" horiz-adv-x="298" />
<glyph unicode="&#x2007;" horiz-adv-x="298" />
<glyph unicode="&#x2008;" horiz-adv-x="224" />
<glyph unicode="&#x2009;" horiz-adv-x="358" />
<glyph unicode="&#x200a;" horiz-adv-x="99" />
<glyph unicode="&#x2010;" horiz-adv-x="610" d="M78 438v252h454v-252h-454z" />
<glyph unicode="&#x2011;" horiz-adv-x="610" d="M78 438v252h454v-252h-454z" />
<glyph unicode="&#x2012;" horiz-adv-x="610" d="M78 438v252h454v-252h-454z" />
<glyph unicode="&#x2013;" horiz-adv-x="1064" d="M112 512v252h840v-252h-840z" />
<glyph unicode="&#x2014;" horiz-adv-x="1954" d="M78 512v252h1798v-252h-1798z" />
<glyph unicode="&#x2018;" horiz-adv-x="562" d="M122 970q0 41 11.5 79t28 72t36.5 64.5t36 56.5l94 152h156l-140 -260q17 -5 38.5 -16t40 -30t31 -48t12.5 -70q0 -72 -43.5 -118t-128.5 -46q-83 0 -127.5 46t-44.5 118z" />
<glyph unicode="&#x2019;" horiz-adv-x="562" d="M78 806l140 262q-17 5 -38.5 16t-40.5 30t-32 47.5t-13 68.5q0 74 44.5 119t127.5 45t127.5 -45t44.5 -119q0 -40 -11.5 -77.5t-28 -71.5t-35.5 -64.5t-35 -56.5l-94 -154h-156z" />
<glyph unicode="&#x201a;" horiz-adv-x="562" d="M78 -288l140 260q-17 5 -38.5 16t-40.5 30t-32 48t-13 70q0 72 44.5 118t127.5 46t127.5 -46t44.5 -118q0 -41 -11.5 -79t-28 -72t-35.5 -64.5t-35 -56.5l-94 -152h-156z" />
<glyph unicode="&#x201c;" horiz-adv-x="1074" d="M122 970q0 41 11.5 79t28 72t36.5 64.5t36 56.5l94 152h156l-140 -260q17 -5 38.5 -16t40 -30t31 -48t12.5 -70q0 -72 -43.5 -118t-128.5 -46q-83 0 -127.5 46t-44.5 118zM634 970q0 41 11.5 79t28 72t36.5 64.5t36 56.5l94 152h156l-140 -260q17 -5 38.5 -16t40 -30 t31 -48t12.5 -70q0 -72 -43.5 -118t-128.5 -46q-83 0 -127.5 46t-44.5 118z" />
<glyph unicode="&#x201d;" horiz-adv-x="1074" d="M78 806l140 262q-17 5 -38.5 16t-40.5 30t-32 47.5t-13 68.5q0 74 44.5 119t127.5 45t127.5 -45t44.5 -119q0 -40 -11.5 -77.5t-28 -71.5t-35.5 -64.5t-35 -56.5l-94 -154h-156zM590 806l140 262q-17 5 -38.5 16t-40.5 30t-32 47.5t-13 68.5q0 74 44.5 119t127.5 45 t127.5 -45t44.5 -119q0 -40 -11.5 -77.5t-28 -71.5t-35.5 -64.5t-35 -56.5l-94 -154h-156z" />
<glyph unicode="&#x201e;" horiz-adv-x="1074" d="M78 -290l140 260q-17 5 -38.5 16t-40.5 30t-32 48t-13 70q0 72 44.5 117t127.5 45t127.5 -45t44.5 -117q0 -41 -11.5 -79t-28 -72t-35.5 -64.5t-35 -56.5l-94 -152h-156zM590 -290l140 260q-17 5 -38.5 16t-40.5 30t-32 48t-13 70q0 72 44.5 117t127.5 45t127.5 -45 t44.5 -117q0 -41 -11.5 -79t-28 -72t-35.5 -64.5t-35 -56.5l-94 -152h-156z" />
<glyph unicode="&#x2022;" horiz-adv-x="1040" d="M218 546q0 66 24 120t65 93t96 60t117 21t117.5 -21t97 -60t65.5 -93t24 -120t-24 -120t-65.5 -92t-97 -59t-117.5 -21t-117 21t-96 59t-65 92t-24 120z" />
<glyph unicode="&#x2026;" horiz-adv-x="1662" d="M94 136q0 72 44.5 118t127.5 46t127.5 -46t44.5 -118t-44.5 -118t-127.5 -46t-127.5 46t-44.5 118zM660 136q0 72 43.5 118t128.5 46q83 0 127.5 -46t44.5 -118t-44.5 -118t-127.5 -46q-85 0 -128.5 46t-43.5 118zM1224 136q0 72 44.5 118t127.5 46q85 0 128.5 -46 t43.5 -118t-43.5 -118t-128.5 -46q-83 0 -127.5 46t-44.5 118z" />
<glyph unicode="&#x202f;" horiz-adv-x="358" />
<glyph unicode="&#x2039;" horiz-adv-x="750" d="M126 466v130l496 364v-238l-220 -192l220 -244v-240z" />
<glyph unicode="&#x203a;" horiz-adv-x="750" d="M126 46v240l222 244l-222 192v238l496 -364v-130z" />
<glyph unicode="&#x205f;" horiz-adv-x="448" />
<glyph unicode="&#x2122;" horiz-adv-x="1466" d="M68 1216v178h520l-24 -178h-144v-506h-204v506h-148zM646 710v684h188l176 -300l188 300h190v-684h-202v358l-128 -214h-98l-114 180v-324h-200z" />
<glyph unicode="&#xe000;" horiz-adv-x="1080" d="M0 1080h1080v-1080h-1080v1080z" />
<glyph unicode="&#xfb01;" horiz-adv-x="1202" d="M-32 820l48 220h94v40q0 104 35 183.5t99.5 133t155 80.5t202.5 27q24 0 55 -1.5t63 -5t61.5 -8.5t50.5 -13l-46 -218q-21 10 -45 15.5t-47 8.5t-43 3.5t-33 0.5q-51 0 -85.5 -15t-55.5 -42t-30 -65t-9 -84v-40h296l328 40v-1080h-328v820h-296v-820h-328v820h-142z" />
<glyph unicode="&#xfb02;" horiz-adv-x="1202" d="M-32 820l48 220h94v40q0 105 34.5 184.5t99 132.5t155.5 80t203 27q24 0 55 -2t62.5 -6t61 -9t51.5 -11l230 14v-1490h-328v1274q-36 8 -68.5 10t-47.5 2q-95 0 -137.5 -52.5t-42.5 -153.5v-40h172v-220h-172v-820h-328v820h-142z" />
<glyph unicode="&#xfb03;" horiz-adv-x="1796" d="M1328 0v1040l328 40v-1080h-328zM1328 1354q0 72 44.5 111t127.5 39t127.5 -39t44.5 -111t-44.5 -111t-127.5 -39t-127.5 39t-44.5 111zM562 820l48 220h94v40q0 98 31 176t89.5 133.5t142 85t189.5 29.5q23 0 49 -2.5t51 -6.5t48 -9t40 -10l-46 -218q-35 21 -68.5 24.5 t-57.5 3.5q-71 0 -105.5 -52.5t-34.5 -153.5v-40h172v-220h-172v-820h-328v820h-142zM-32 820l48 220h94v40q0 98 31 176t89.5 133.5t142 85t189.5 29.5q23 0 49 -2.5t51 -6.5t48 -9t40 -10l-46 -218q-35 21 -68.5 24.5t-57.5 3.5q-71 0 -105.5 -52.5t-34.5 -153.5v-40h172 v-220h-172v-820h-328v820h-142z" />
<glyph unicode="&#xfb04;" horiz-adv-x="1796" d="M1328 0v1450l328 40v-1490h-328zM562 820l48 220h94v40q0 98 31 176t89.5 133.5t142 85t189.5 29.5q23 0 49 -2.5t51 -6.5t48 -9t40 -10l-46 -218q-35 21 -68.5 24.5t-57.5 3.5q-71 0 -105.5 -52.5t-34.5 -153.5v-40h172v-220h-172v-820h-328v820h-142zM-32 820l48 220 h94v40q0 98 31 176t89.5 133.5t142 85t189.5 29.5q23 0 49 -2.5t51 -6.5t48 -9t40 -10l-46 -218q-35 21 -68.5 24.5t-57.5 3.5q-71 0 -105.5 -52.5t-34.5 -153.5v-40h172v-220h-172v-820h-328v820h-142z" />
<glyph horiz-adv-x="1294" d="M126 370v682l328 28v-642q0 -56 12.5 -95.5t34.5 -64t52 -35.5t65 -11q62 0 112 24t98 80v716l328 28v-1052l-328 -42v134q-74 -72 -154 -103t-166 -31q-82 0 -152 21.5t-121 68t-80 119t-29 175.5z" />
</font>
</defs>
</svg>
